<?xml version="1.0" standalone="no"?>
<!DOCTYPE svg PUBLIC "-//W3C//DTD SVG 1.1//EN" "http://www.w3.org/Graphics/SVG/1.1/DTD/svg11.dtd" >
<svg>
<metadata>
Created by FontForge 20090914 at Wed May  6 02:31:46 2015
 By www-data
URW Software, Copyright 1994 by URW
</metadata>
<defs>
<font id="NimbusSanLCY-Regu" horiz-adv-x="556" >
  <font-face 
    font-family="Nimbus Sans L CY"
    font-weight="400"
    font-stretch="normal"
    units-per-em="1000"
    panose-1="2 0 5 3 3 0 0 2 0 4"
    ascent="800"
    descent="-200"
    x-height="524"
    cap-height="729"
    bbox="-22 -220 1237 939"
    underline-thickness="50"
    underline-position="-101"
    unicode-range="U+0020-U+2265"
  />
<missing-glyph horiz-adv-x="278" 
 />
    <glyph glyph-name=".notdef" horiz-adv-x="278" 
 />
    <glyph glyph-name="space" unicode=" " horiz-adv-x="278" 
 />
    <glyph glyph-name="exclam" unicode="!" horiz-adv-x="278" 
d="M208 0h-84v104h84v-104zM208 391l-22 -223h-39l-22 223v338h83v-338z" />
    <glyph glyph-name="quotedbl" unicode="&#x22;" horiz-adv-x="355" 
d="M305 709v-111l-27 -134h-39l-27 134v111h93zM145 709v-111l-27 -134h-39l-27 134v111h93z" />
    <glyph glyph-name="numbersign" unicode="#" 
d="M236 433l-32 -174h125l31 174h-124zM449 501h93v-68h-106l-31 -174h105v-68h-117l-39 -211h-76l38 211h-124l-39 -211h-76l38 211h-101v68h114l31 174h-108v68h121l36 196h76l-36 -196h125l35 196h77z" />
    <glyph glyph-name="dollar" unicode="$" 
d="M302 46c22.667 2.66699 40.9971 6.83203 54.9971 12.499s27 14.834 39 27.501c26.667 26.667 40 59 40 97c0 16.667 -2.16699 31.167 -6.5 43.5s-11.666 23.333 -21.999 33s-24.166 18.5 -41.499 26.5s-38.666 15.667 -63.999 23v-263zM242.997 644.998
c-37.333 -5.33301 -66 -18.168 -86 -38.501s-30 -47.166 -30 -80.499c0 -60 38.667 -100.333 116 -121v240zM301.997 769.996l0.00292969 -53.998c60.667 -4.66699 108.167 -24.334 142.5 -59.001s51.5 -80.667 51.5 -138h-79c-0.666992 36.667 -11.5 66.667 -32.5 90
s-48.5 35.666 -82.5 36.999v-249l57.5 -17.5c14.333 -4.33301 26.166 -8.33301 35.499 -12s17 -7 23 -10s12.333 -6.5 19 -10.5c54 -33.333 81 -83.666 81 -150.999c0 -41.333 -8.5 -78.333 -25.5 -111s-40.833 -58 -71.5 -76c-16 -9.33301 -33.333 -16.5 -52 -21.5
s-41 -8.5 -67 -10.5v-103h-59v103c-70.667 4.66699 -124.167 26.834 -160.5 66.501s-52.833 94.5 -49.5 164.5h79c1.33301 -16 2.66602 -29.5 3.99902 -40.5s3 -20.167 5 -27.5s4.16699 -13.833 6.5 -19.5s5.5 -11.5 9.5 -17.5c11.333 -15.333 26.166 -27.833 44.499 -37.5
s38.833 -16.167 61.5 -19.5v272l-48 15.5c-13.333 4.33301 -25 8.5 -35 12.5s-18.667 8.16699 -26 12.5s-14.333 9.16602 -21 14.499c-44.667 33.333 -67 80.666 -67 141.999c0 58 16.667 104 50 138s82.333 55 147 63v54h59z" />
    <glyph glyph-name="percent" unicode="%" horiz-adv-x="889" 
d="M687 252c-28 0 -51.666 -9.66699 -70.999 -29s-29 -43 -29 -71c0 -14 2.66699 -27.167 8 -39.5s12.5 -23 21.5 -32s19.833 -16.167 32.5 -21.5s26 -8 40 -8s27 2.66699 39 8s22.667 12.5 32 21.5s16.666 19.5 21.999 31.5s8 25 8 39c0 28.667 -9.83301 52.667 -29.5 72
s-44.167 29 -73.5 29zM691.001 322c22.667 0 44.334 -4.50195 65.001 -13.502s38.5 -21.167 53.5 -36.5s27 -33.333 36 -54s13.5 -42.667 13.5 -66c0 -24 -4.5 -46.333 -13.5 -67s-21.167 -38.667 -36.5 -54s-33.333 -27.5 -54 -36.5s-42.667 -13.5 -66 -13.5
s-45.5 4.5 -66.5 13.5s-39.167 21.167 -54.5 36.5s-27.5 33.333 -36.5 54s-13.5 42.667 -13.5 66c0 24 4.5 46.333 13.5 67s21.167 38.834 36.5 54.501s33.666 27.834 54.999 36.501s44 13 68 13zM675.001 708.998l-395 -729h-66l395 729h66zM198.001 614.998
c-14 0 -26.998 -2.66797 -38.998 -8.00098s-22.5 -12.666 -31.5 -21.999s-16.167 -20 -21.5 -32s-8 -25 -8 -39s2.66699 -27.167 8 -39.5s12.666 -23 21.999 -32s20.166 -16.167 32.499 -21.5s25.5 -8 39.5 -8s27.167 2.66699 39.5 8s23 12.5 32 21.5s16.167 19.667 21.5 32
s8 25.5 8 39.5c0 28.667 -9.83301 52.667 -29.5 72s-44.167 29 -73.5 29zM202.003 684.997c22.667 0 44.334 -4.49902 65.001 -13.499s38.5 -21.333 53.5 -37s27 -33.834 36 -54.501s13.5 -42.667 13.5 -66s-4.5 -45.5 -13.5 -66.5s-21.167 -39.167 -36.5 -54.5
s-33.333 -27.5 -54 -36.5s-42.667 -13.5 -66 -13.5s-45.5 4.5 -66.5 13.5s-39.167 21.167 -54.5 36.5s-27.5 33.5 -36.5 54.5s-13.5 43.167 -13.5 66.5c0 24 4.5 46.333 13.5 67s21.167 38.667 36.5 54s33.666 27.5 54.999 36.5s44 13.5 68 13.5z" />
    <glyph glyph-name="ampersand" unicode="&#x26;" horiz-adv-x="667" 
d="M258 337c-22.667 -14.667 -41.834 -28.3311 -57.501 -40.998s-28.167 -25 -37.5 -37s-16.166 -24.167 -20.499 -36.5s-6.5 -25.5 -6.5 -39.5c0 -17.333 3.5 -33.833 10.5 -49.5s16.333 -29.334 28 -41.001s25.5 -20.834 41.5 -27.501s33 -10 51 -10
c26 0 50.667 6.16699 74 18.5s49 33.5 77 63.5zM285 431.003c38 23.333 64.666 44.168 79.999 62.501s23 38.5 23 60.5c0 24.667 -8.16699 45 -24.5 61s-37.166 24 -62.499 24c-26 0 -46.833 -7.83301 -62.5 -23.5s-23.5 -36.5 -23.5 -62.5
c0 -9.33301 0.833008 -17.5 2.5 -24.5s5 -14.833 10 -23.5s12 -18.834 21 -30.501s21.167 -26.167 36.5 -43.5zM572.999 334.005c0 -30 -5.00293 -60.835 -15.0029 -92.502s-24.333 -61.834 -43 -90.501l122 -151h-109l-62 78c-20.667 -19.333 -36.5 -33.666 -47.5 -42.999
s-22.167 -17.666 -33.5 -24.999c-17.333 -10.667 -37 -18.834 -59 -24.501s-44.667 -8.5 -68 -8.5c-31.333 0 -59.666 4.66699 -84.999 14s-47 22.833 -65 40.5s-31.833 38.667 -41.5 63s-14.5 51.5 -14.5 81.5c0 22.667 2.5 43.167 7.5 61.5s13.833 35.833 26.5 52.5
s29.334 32.834 50.001 48.501s46.667 32.5 78 50.5c-16 20 -29.167 37.5 -39.5 52.5s-18.5 28.667 -24.5 41s-10.333 24 -13 35s-4 22.5 -4 34.5c0 22 4.33301 42.5 13 61.5s20.834 35.667 36.501 50s33.834 25.5 54.501 33.5s43 12 67 12s45.833 -3.83301 65.5 -11.5
s36.834 -18.5 51.501 -32.5s26 -30.667 34 -50s12 -40.333 12 -63c0 -18 -2.33301 -34.5 -7 -49.5s-12.334 -29.167 -23.001 -42.5s-24.834 -26.666 -42.501 -39.999s-39.5 -27.333 -65.5 -42l133 -163c10 18 17.833 37.833 23.5 59.5s8.16699 41.5 7.5 59.5h80z" />
    <glyph glyph-name="quotesingle" unicode="'" horiz-adv-x="191" 
d="M142 709v-111l-27 -134h-40l-27 134v111h94z" />
    <glyph glyph-name="parenleft" unicode="(" horiz-adv-x="333" 
d="M291 729c-44 -71.333 -77.833 -147.5 -101.5 -228.5s-35.5 -161.5 -35.5 -241.5c0 -80.667 11.833 -161.334 35.5 -242.001s57.5 -157 101.5 -229h-55c-25.333 32.667 -48 68.167 -68 106.5s-37 78 -51 119s-24.833 82.333 -32.5 124s-11.5 82.167 -11.5 121.5
s3.83301 79.833 11.5 121.5s18.5 82.834 32.5 123.501s31 80.167 51 118.5s42.667 73.833 68 106.5h55z" />
    <glyph glyph-name="parenright" unicode=")" horiz-adv-x="333" 
d="M38 -212c44 71.333 77.833 147.5 101.5 228.5s35.5 161.5 35.5 241.5c0 80.667 -11.833 161.334 -35.5 242.001s-57.5 157 -101.5 229h55c24.667 -32.667 47.167 -68.167 67.5 -106.5s37.5 -78 51.5 -119s24.833 -82.333 32.5 -124s11.5 -82.167 11.5 -121.5
s-3.83301 -79.833 -11.5 -121.5s-18.5 -82.834 -32.5 -123.501s-31.167 -80.167 -51.5 -118.5s-42.833 -73.833 -67.5 -106.5h-55z" />
    <glyph glyph-name="asterisk" unicode="*" horiz-adv-x="389" 
d="M223 729l-5 -112l106 38l19 -59l-108 -30l70 -89l-51 -36l-62 93l-63 -93l-50 36l69 89l-108 30l19 59l106 -38l-5 112h63z" />
    <glyph glyph-name="plus" unicode="+" horiz-adv-x="584" 
d="M534 197h-207v-207h-70v207h-207v70h207v207h70v-207h207v-70z" />
    <glyph glyph-name="comma" unicode="," horiz-adv-x="278" 
d="M192 104l-0.000976562 -120c0 -87.333 -35 -131 -105 -131v38c22.667 0.666992 38.334 7.16699 47.001 19.5s13 34.833 13 67.5v22h-60v104h105z" />
    <glyph glyph-name="hyphen" unicode="-" horiz-adv-x="333" 
d="M284 240h-238v72h238v-72z" />
    <glyph glyph-name="hyphen" unicode="&#xad;" horiz-adv-x="333" 
d="M284 240h-238v72h238v-72z" />
    <glyph glyph-name="period" unicode="." horiz-adv-x="278" 
d="M191 0h-104v104h104v-104z" />
    <glyph glyph-name="slash" unicode="/" horiz-adv-x="278" 
d="M284 729l-237 -749h-55l237 749h55z" />
    <glyph glyph-name="zero" unicode="0" 
d="M273 631c-93.333 0 -140.001 -96.332 -140.001 -288.999c0 -194.667 47.333 -292 142 -292s142 96.667 142 290c0 99.333 -11.667 172.666 -35 219.999s-59.666 71 -108.999 71zM277.999 709.001c32 0 62.168 -6.83105 90.501 -20.498s51.5 -32.834 69.5 -57.501
c23.333 -32 40.666 -71.5 51.999 -118.5s17 -103.5 17 -169.5c0 -120 -19.5 -211 -58.5 -273s-96.833 -93 -173.5 -93c-76 0 -133.667 30.667 -173 92s-59 151.666 -59 270.999c0 246 78.333 369 235 369z" />
    <glyph glyph-name="one" unicode="1" 
d="M102 505v63.001c34 4 61.333 8.5 82 13.5s37.5 12.5 50.5 22.5s23.333 23.167 31 39.5s15.5 38.166 23.5 65.499h58v-709h-88v505h-157z" />
    <glyph glyph-name="two" unicode="2" 
d="M506 0l-471.999 -0.000976562c2 38.667 6.5 72.5 13.5 101.5s18.167 55.333 33.5 79s35.166 45.334 59.499 65.001s55.166 40.167 92.499 61.5l92 52c64 36.667 96 83.334 96 140.001c0 18.667 -3.5 36.167 -10.5 52.5s-16.833 30.5 -29.5 42.5s-27.5 21.333 -44.5 28
s-35.5 10 -55.5 10c-28 0 -52.833 -6.33301 -74.5 -19s-38.167 -30.667 -49.5 -54c-5.33301 -11.333 -9.5 -24.333 -12.5 -39s-5.16699 -33.667 -6.5 -57h-88c0.666992 37.333 4.33398 68.333 11.001 93s16.667 46.667 30 66c40 58 104.333 87 193 87c33.333 0 64 -5 92 -15
s52 -24.167 72 -42.5s35.5 -40.333 46.5 -66s16.5 -53.834 16.5 -84.501c0 -88 -50 -159.333 -150 -214l-100 -54c-22 -12.667 -40.5 -24.667 -55.5 -36s-27.5 -22.833 -37.5 -34.5s-17.833 -23.5 -23.5 -35.5s-9.5 -25.333 -11.5 -40h373v-87z" />
    <glyph glyph-name="three" unicode="3" 
d="M221 400c32 0.666992 56.999 2.16602 74.999 4.49902s33 6.16602 45 11.499c18.667 8.66699 32.334 20.5 41.001 35.5s13 34.833 13 59.5c0 38 -11 67.667 -33 89s-52.667 32 -92 32c-28 0 -52.667 -5.83301 -74 -17.5s-37 -27.834 -47 -48.501
c-4.66699 -10.667 -8 -22.5 -10 -35.5s-3.33301 -29.833 -4 -50.5h-88c3.33301 152.667 77.333 229 222 229c68 0 121 -17.167 159 -51.5s57 -82.166 57 -143.499c0 -71.333 -33 -120.333 -99 -147c42.667 -14.667 73.334 -35.167 92.001 -61.5s28 -62.166 28 -107.499
c0 -34 -5.66699 -64.5 -17 -91.5s-27.5 -50.167 -48.5 -69.5s-46.167 -34.166 -75.5 -44.499s-62.333 -15.5 -99 -15.5c-74.667 0 -130.834 18.5 -168.501 55.5s-59.5 94.833 -65.5 173.5h88c3.33301 -52 17 -90.167 41 -114.5s60 -36.5 108 -36.5c46 0 82 12.5 108 37.5
s39 59.833 39 104.5c0 42 -12.333 74 -37 96s-60 33 -106 33l-41 -1h-11v75z" />
    <glyph glyph-name="four" unicode="4" 
d="M327 559l-222 -310h222v310zM28 170v93l322 446h65v-460h105v-79h-105v-170h-88v170h-299z" />
    <glyph glyph-name="five" unicode="5" 
d="M476 622l-295.001 -0.000976562l-28 -198c20.667 15.333 41.334 26.333 62.001 33s43.667 10 69 10c34 0 65 -5.66699 93 -17s52.167 -27.5 72.5 -48.5s36 -46 47 -75s16.5 -60.833 16.5 -95.5c0 -37.333 -6 -71.666 -18 -102.999s-28.667 -58.166 -50 -80.499
s-46.833 -39.666 -76.5 -51.999s-62.5 -18.5 -98.5 -18.5c-42 0 -80.167 7.83301 -114.5 23.5s-61.5 37.5 -81.5 65.5c-9.33301 13.333 -16.833 27.666 -22.5 42.999s-11.167 37 -16.5 65h88c20.667 -79.333 69 -119 145 -119c48 0 85.833 14.5 113.5 43.5
s41.5 69.167 41.5 120.5c0 52.667 -13.667 94.167 -41 124.5s-65 45.5 -113 45.5c-28 0 -51.667 -4.83301 -71 -14.5s-39.333 -26.834 -60 -51.501h-81l53 386h366v-87z" />
    <glyph glyph-name="six" unicode="6" 
d="M283 363c-21.333 0 -40.833 -3.66895 -58.5 -11.002s-33 -17.666 -46 -30.999s-23 -29 -30 -47s-10.5 -38 -10.5 -60c0 -22.667 3.66699 -43.667 11 -63s17.5 -36.166 30.5 -50.499s28.167 -25.5 45.5 -33.5s36.333 -12 57 -12s39.5 3.83301 56.5 11.5
s31.833 18.5 44.5 32.5s22.5 30.5 29.5 49.5s10.5 39.833 10.5 62.5c0 47.333 -12.5 84.5 -37.5 111.5s-59.167 40.5 -102.5 40.5zM410 523.998c-7.33301 34 -21.1699 60.335 -41.5029 79.002s-46.166 28 -77.499 28c-50.667 0 -89.5 -23 -116.5 -69
s-40.833 -112.667 -41.5 -200c38.667 52.667 93 79 163 79c32 0 61.167 -5.5 87.5 -16.5s49.166 -26.5 68.499 -46.5s34.333 -43.833 45 -71.5s16 -57.834 16 -90.501c0 -34.667 -5.83301 -66.667 -17.5 -96s-27.667 -54.5 -48 -75.5s-44.666 -37.5 -72.999 -49.5
s-59.5 -18 -93.5 -18c-39.333 0 -74 7.5 -104 22.5s-54.667 36.833 -74 65.5c-21.333 31.333 -36.666 67.166 -45.999 107.499s-14 90.5 -14 150.5c0 64.667 5 119.667 15 165s26.333 85.333 49 120c21.333 32 48.5 56.833 81.5 74.5s69.167 26.5 108.5 26.5
c54 0 98.833 -16.167 134.5 -48.5s57.834 -77.833 66.501 -136.5h-88z" />
    <glyph glyph-name="seven" unicode="7" 
d="M520 635c-40 -53.333 -75.668 -105.667 -107.001 -157s-58.833 -103 -82.5 -155s-43.5 -104.667 -59.5 -158s-29 -108.333 -39 -165h-94c13.333 58 28 111.833 44 161.5s35.333 98.5 58 146.5s49.334 97.333 80.001 148s67 106 109 166h-383v87h474v-74z" />
    <glyph glyph-name="eight" unicode="8" 
d="M273 334c-43.333 0 -78.5 -12.833 -105.5 -38.5s-40.5 -59.167 -40.5 -100.5c0 -42 13.667 -75.833 41 -101.5s63 -38.5 107 -38.5c22 0 42 3.33301 60 10s33.5 16.167 46.5 28.5s23.167 27 30.5 44s11 35.833 11 56.5c0 42.667 -13.5 76.667 -40.5 102
s-63.5 38 -109.5 38zM273 631c-36 0 -65.167 -10.167 -87.5 -30.5s-33.5 -47.5 -33.5 -81.5s11 -61 33 -81s52 -30 90 -30s68 10 90 30s33 47 33 81c0 34.667 -11.167 62 -33.5 82s-52.833 30 -91.5 30zM391 373c81.333 -38.667 122 -97.3379 122 -176.005
c0 -32.667 -5.83301 -62.5 -17.5 -89.5s-28 -50.167 -49 -69.5s-46 -34.333 -75 -45s-61.167 -16 -96.5 -16s-67.5 5.33301 -96.5 16s-54 25.667 -75 45s-37.333 42.5 -49 69.5s-17.5 56.833 -17.5 89.5c0 78.667 40.333 137.334 121 176.001
c-18 11.333 -33.167 22.166 -45.5 32.499s-22.333 21.333 -30 33s-13 24 -16 37s-4.5 27.833 -4.5 44.5c0 28 5.16699 53.5 15.5 76.5s25 42.833 44 59.5s41.5 29.667 67.5 39s54.667 14 86 14s60.166 -4.66699 86.499 -14s48.833 -22.166 67.5 -38.499
s33.167 -36.166 43.5 -59.499s15.5 -49 15.5 -77c0 -16.667 -1.66699 -31.667 -5 -45s-8.66602 -25.666 -15.999 -36.999s-17.333 -22.166 -30 -32.499s-28 -21.166 -46 -32.499z" />
    <glyph glyph-name="nine" unicode="9" 
d="M267 632c-20 0 -38.5 -3.83301 -55.5 -11.5s-31.667 -18.5 -44 -32.5s-22 -30.667 -29 -50s-10.5 -40.333 -10.5 -63c0 -46.667 12.5 -83.667 37.5 -111s58.5 -41 100.5 -41c21.333 0 41 3.66699 59 11s33.5 17.5 46.5 30.5s23.167 28.667 30.5 47s11 38.5 11 60.5
c0 23.333 -3.66699 44.833 -11 64.5s-17.5 36.5 -30.5 50.5s-28.333 25 -46 33s-37.167 12 -58.5 12zM141 162c7.33301 -34 21.1699 -60.332 41.5029 -78.999s46.166 -28 77.499 -28c50.667 0 89.5 23 116.5 69s40.833 112.667 41.5 200
c-23.333 -28 -47.666 -48.167 -72.999 -60.5s-55 -18.5 -89 -18.5c-32 0 -61.333 5.5 -88 16.5s-49.667 26.5 -69 46.5s-34.333 43.667 -45 71s-16 57.666 -16 90.999c0 34.667 5.83301 66.667 17.5 96s27.667 54.5 48 75.5s44.666 37.5 72.999 49.5s59.5 18 93.5 18
c39.333 0 74.166 -7.5 104.499 -22.5s55.166 -36.833 74.499 -65.5c20.667 -31.333 35.834 -67.333 45.501 -108s14.5 -90.667 14.5 -150c0 -64.667 -5.16699 -119.667 -15.5 -165s-26.5 -85.333 -48.5 -120c-21.333 -32 -48.5 -56.833 -81.5 -74.5
s-69.5 -26.5 -109.5 -26.5c-54 0 -98.833 16.167 -134.5 48.5s-57.834 77.833 -66.501 136.5h88z" />
    <glyph glyph-name="colon" unicode=":" horiz-adv-x="278" 
d="M214 420h-104v104h104v-104zM214 0h-104v104h104v-104z" />
    <glyph glyph-name="semicolon" unicode=";" horiz-adv-x="278" 
d="M215 104l-0.000976562 -120c0 -87.333 -35 -131 -105 -131v38c22.667 0.666992 38.334 7.16699 47.001 19.5s13 34.833 13 67.5v22h-60v104h105zM214.999 420h-104v104h104v-104z" />
    <glyph glyph-name="semicolon" unicode="&#x37e;" horiz-adv-x="278" 
d="M215 104l-0.000976562 -120c0 -87.333 -35 -131 -105 -131v38c22.667 0.666992 38.334 7.16699 47.001 19.5s13 34.833 13 67.5v22h-60v104h105zM214.999 420h-104v104h104v-104z" />
    <glyph glyph-name="less" unicode="&#x3c;" horiz-adv-x="584" 
d="M45 267l489 207v-79l-394 -161l394 -164v-79l-489 207v69z" />
    <glyph glyph-name="equal" unicode="=" horiz-adv-x="584" 
d="M534 111h-484v70h484v-70zM534 283h-484v70h484v-70z" />
    <glyph glyph-name="greater" unicode="&#x3e;" horiz-adv-x="584" 
d="M539 198l-489 -207v79l394 161l-394 164v79l489 -207v-69z" />
    <glyph glyph-name="question" unicode="?" 
d="M330 0h-90v104h90v-104zM240 199l-0.000976562 55.0039c0 18 2 33.5 6 46.5s11.333 26.5 22 40.5c4 6 7.5 10.833 10.5 14.5s6.83301 7.83398 11.5 12.501s11.167 10.667 19.5 18l34.5 31c26.667 23.333 45.834 45.333 57.501 66s17.5 42.667 17.5 66
c0 34 -11.667 61.5 -35 82.5s-54.333 31.5 -93 31.5c-44.667 0 -77.334 -12.5 -98.001 -37.5s-31 -64.5 -31 -118.5h-85c0 156 73 234 219 234c32.667 0 62 -4.5 88 -13.5s48.333 -21.833 67 -38.5s33 -36.834 43 -60.501s15 -50.167 15 -79.5
c0 -16.667 -1.66699 -32.167 -5 -46.5s-9 -28.5 -17 -42.5s-18.333 -28.333 -31 -43s-28.334 -30.334 -47.001 -47.001c-17.333 -16 -31.166 -29.333 -41.499 -40s-18.166 -20.334 -23.499 -29.001s-9 -17.334 -11 -26.001s-3 -18.334 -3 -29.001v-47h-90z" />
    <glyph glyph-name="at" unicode="@" horiz-adv-x="1015" 
d="M514 458c-21.333 0 -41.498 -5.83105 -60.498 -17.498s-36 -27.5 -51 -47.5s-26.833 -42.833 -35.5 -68.5s-13 -52.5 -13 -80.5c0 -16.667 2.5 -32.167 7.5 -46.5s12 -26.833 21 -37.5s19.5 -19 31.5 -25s25 -9 39 -9c19.333 0 38.166 6 56.499 18
s34.166 28.667 47.499 50c6 10 12.167 22.5 18.5 37.5s12 30.667 17 47s9 32.166 12 47.499s4.5 28.666 4.5 39.999c0 27.333 -8.83301 49.5 -26.5 66.5s-40.5 25.5 -68.5 25.5zM748.002 501.002l-90.0029 -279.995c-8 -23.333 -12 -40.333 -12 -51
c0 -11.333 5 -21.333 15 -30s21.667 -13 35 -13c21.333 0 42 6.5 62 19.5s37.833 30.167 53.5 51.5s28.334 45.666 38.001 72.999s14.5 55.666 14.5 84.999c0 42 -9.33301 81.667 -28 119s-44 70 -76 98s-69.333 50.167 -112 66.5s-88 24.5 -136 24.5
c-52.667 0 -102.834 -10.5 -150.501 -31.5s-89.5 -49.333 -125.5 -85s-64.5 -77.167 -85.5 -124.5s-31.5 -97.333 -31.5 -150c0 -48 9.66699 -92.5 29 -133.5s45.666 -76.667 78.999 -107s72.833 -54.166 118.5 -71.499s94.834 -26 147.501 -26c28 0 57 2.5 87 7.5
s65.667 13.167 107 24.5l28 -67c-36.667 -13.333 -74.167 -23.666 -112.5 -30.999s-76.166 -11 -113.499 -11c-63.333 0 -122.5 10.5 -177.5 31.5s-103.167 49.5 -144.5 85.5s-73.833 78.167 -97.5 126.5s-35.5 100.166 -35.5 155.499c0 32.667 3.66699 65.5 11 98.5
s17.833 64.667 31.5 95s30.167 59.333 49.5 87s41.333 52.5 66 74.5c22 20 46.167 38 72.5 54s53.833 29.5 82.5 40.5s58.167 19.5 88.5 25.5s60.5 9 90.5 9c58 0 112.833 -9.83301 164.5 -29.5s96.667 -46.334 135 -80.001s68.833 -73.167 91.5 -118.5s34 -93.333 34 -144
c0 -40.667 -7.83301 -81 -23.5 -121s-38.167 -76 -67.5 -108c-49.333 -55.333 -109.666 -83 -180.999 -83c-64 0 -100.667 25.667 -110 77c-23.333 -25.333 -46.166 -43.666 -68.499 -54.999s-46.833 -17 -73.5 -17c-23.333 0 -45 4.66699 -65 14
s-37.167 22.166 -51.5 38.499s-25.666 35.666 -33.999 57.999s-12.5 46.5 -12.5 72.5c0 36.667 7 71.667 21 105s33 62.666 57 87.999s51.5 45.666 82.5 60.999s63.5 23 97.5 23c55.333 0 95.666 -29 120.999 -87l22 66h83z" />
    <glyph glyph-name="A" unicode="A" horiz-adv-x="667" 
d="M336 629l-120 -332h232zM193 219l-77 -219h-99l260 729h120l256 -729h-104l-75 219h-281z" />
    <glyph glyph-name="B" unicode="B" horiz-adv-x="667" 
d="M399 82c41.333 0 73.5 11 96.5 33s34.5 52.667 34.5 92c0 40 -11.5 71 -34.5 93s-55.167 33 -96.5 33h-227v-251h227zM352 415c97.333 0 146 38.667 146 116s-48.667 116 -146 116h-180v-232h180zM79 729h295.999c66.667 0 119.334 -16.5 158.001 -49.5
s58 -78.167 58 -135.5c0 -74.667 -33.667 -127.667 -101 -159c46.667 -18 80.5 -41 101.5 -69s31.5 -64 31.5 -108c0 -58.667 -18.667 -107.667 -56 -147c-38 -40.667 -91 -61 -159 -61h-329v729z" />
    <glyph glyph-name="C" unicode="C" horiz-adv-x="722" 
d="M567 503c-6 28 -13.1689 50.668 -21.502 68.001s-19.833 32.333 -34.5 45c-15.333 13.333 -35.5 23.833 -60.5 31.5s-51.833 11.5 -80.5 11.5c-35.333 0 -67.166 -7 -95.499 -21s-52.333 -34 -72 -60s-34.834 -57.667 -45.501 -95s-16 -79.333 -16 -126
c0 -45.333 5.5 -86.333 16.5 -123s26.833 -68 47.5 -94s45.667 -46 75 -60s62 -21 98 -21c40.667 0 75.834 8.33301 105.501 25s52.167 41 67.5 73c6.66699 14.667 12.334 30.5 17.001 47.5s9 37.5 13 61.5h96c-22 -192.667 -121.333 -289 -298 -289
c-49.333 0 -92.166 6.83301 -128.499 20.5s-68.833 35.167 -97.5 64.5c-34 35.333 -60 78 -78 128s-27 105.333 -27 166c0 59.333 8.66699 114.166 26 164.499s42.666 93.5 75.999 129.5c54.667 60.667 131.667 91 231 91c80.667 0 144 -19.5 190 -58.5
s76.333 -98.833 91 -179.5h-95z" />
    <glyph glyph-name="D" unicode="D" horiz-adv-x="722" 
d="M354 82c72.667 0 127.5 23.668 164.5 71.001s55.5 117.666 55.5 210.999s-18.5 163.833 -55.5 211.5s-91.833 71.5 -164.5 71.5h-172v-565h172zM89 729.001l281.002 0.000976562c46 0 87.5 -8.33301 124.5 -25s68.167 -40.667 93.5 -72s44.833 -69.5 58.5 -114.5
s20.5 -95.833 20.5 -152.5s-6.83301 -107.5 -20.5 -152.5s-33.334 -83.333 -59.001 -115s-56.834 -55.834 -93.501 -72.501s-78 -25 -124 -25h-281v729z" />
    <glyph glyph-name="E" unicode="E" horiz-adv-x="667" 
d="M183 82h430v-82h-523v729h505v-82h-412v-233h397v-82h-397v-250z" />
    <glyph glyph-name="F" unicode="F" horiz-adv-x="611" 
d="M183 0h-93v729h489v-82h-396v-233h348v-82h-348v-332z" />
    <glyph glyph-name="G" unicode="G" horiz-adv-x="778" 
d="M709 -4h-59.0039l-23 97c-36 -40 -74 -69.333 -114 -88s-85 -28 -135 -28c-49.333 0 -94.5 9.33301 -135.5 28s-76.167 44.667 -105.5 78s-52.166 73.333 -68.499 120s-24.5 98 -24.5 154c0 66 11.333 126 34 180s55.334 98.667 98.001 134
c56.667 46.667 129.334 70 218.001 70c84 0 152.5 -20.167 205.5 -60.5s86.167 -97.833 99.5 -172.5h-95c-10 47.333 -33.667 84.333 -71 111s-84 40 -140 40c-38.667 0 -73.667 -7 -105 -21s-58.166 -34 -80.499 -60s-39.666 -57.167 -51.999 -93.5
s-18.5 -76.833 -18.5 -121.5c0 -46 6.83301 -89.333 20.5 -130s32.5 -74 56.5 -100c21.333 -23.333 48 -41.5 80 -54.5s66.667 -19.5 104 -19.5c33.333 0 64 5.5 92 16.5s52.167 26.5 72.5 46.5s36.166 43.667 47.499 71s17 57.333 17 90v20h-222v82h304v-389z" />
    <glyph glyph-name="H" unicode="H" horiz-adv-x="722" 
d="M177 332v-332h-94v729h93v-315h375v315h93v-729h-93v332h-374z" />
    <glyph glyph-name="I" unicode="I" horiz-adv-x="278" 
d="M194 0h-94v729h94v-729z" />
    <glyph glyph-name="J" unicode="J" horiz-adv-x="500" 
d="M426 729l-0.00292969 -547.001c0 -32 -4.33301 -59.833 -13 -83.5s-22.667 -45.167 -42 -64.5s-41.166 -33.666 -65.499 -42.999s-53.5 -14 -87.5 -14c-61.333 0 -110.166 17.333 -146.499 52s-54.5 81.667 -54.5 141v64h95v-47c0 -42.667 9.33301 -75.334 28 -98.001
s45.667 -34 81 -34c18.667 0 35.834 4 51.501 12s28.167 19 37.5 33c8.66699 12.667 14.667 27.834 18 45.501s5 41.167 5 70.5v513h93z" />
    <glyph glyph-name="K" unicode="K" horiz-adv-x="667" 
d="M172 0h-93v729h93v-369l363 369h120l-297 -297l300 -432h-110l-257 374l-119 -119v-255z" />
    <glyph glyph-name="L" unicode="L" 
d="M173 82h360v-82h-453v729h93v-647z" />
    <glyph glyph-name="M" unicode="M" horiz-adv-x="833" 
d="M370 0l-207 611v-611h-88v729h129l216 -635l212 635h129v-729h-88v611l-205 -611h-98z" />
    <glyph glyph-name="N" unicode="N" horiz-adv-x="722" 
d="M646 0h-105l-377 591v-591h-88v729h101l381 -596v596h88v-729z" />
    <glyph glyph-name="O" unicode="O" horiz-adv-x="778" 
d="M387 659c-38 0 -72.668 -7.33301 -104.001 -22s-58.333 -35.167 -81 -61.5s-40.167 -57.833 -52.5 -94.5s-18.5 -77.334 -18.5 -122.001c0 -45.333 6.16699 -86.333 18.5 -123s29.833 -68.167 52.5 -94.5s49.834 -46.666 81.501 -60.999s67.167 -21.5 106.5 -21.5
c38.667 0 74 7.16699 106 21.5s59.333 34.666 82 60.999s40.167 57.833 52.5 94.5s18.5 77.334 18.5 122.001c0 46 -6.16699 87.5 -18.5 124.5s-30 68.5 -53 94.5s-50.5 46.167 -82.5 60.5s-68 21.5 -108 21.5zM393.999 741c51.333 0 98.332 -9.32812 140.999 -27.9951
s79.334 -44.834 110.001 -78.501s54.5 -73.834 71.5 -120.501s25.5 -98.334 25.5 -155.001c0 -57.333 -8.5 -109.333 -25.5 -156s-41 -86.834 -72 -120.501s-68 -59.667 -111 -78s-90.833 -27.5 -143.5 -27.5s-100.5 9.16699 -143.5 27.5s-80 44.166 -111 77.499
s-55 73.333 -72 120s-25.5 98.667 -25.5 156c0 58 8.5 110.5 25.5 157.5s41 87.333 72 121s68.333 59.5 112 77.5s92.5 27 146.5 27z" />
    <glyph glyph-name="P" unicode="P" horiz-adv-x="667" 
d="M378 391c44.667 0 79.5 11.333 104.5 34s37.5 54 37.5 94s-12.5 71.333 -37.5 94s-59.833 34 -104.5 34h-194v-256h194zM184 0h-93.001v729h301c72.667 0 128.334 -18.5 167.001 -55.5s58 -89.833 58 -158.5c0 -34 -5 -63.167 -15 -87.5s-26 -46.5 -48 -66.5
c-38.667 -34.667 -85.667 -52 -141 -52h-229v-309z" />
    <glyph glyph-name="Q" unicode="Q" horiz-adv-x="778" 
d="M570 132c27.333 30.667 47.333 64.3311 60 100.998s19 79 19 127c0 44.667 -6.16699 85.334 -18.5 122.001s-29.833 68.167 -52.5 94.5s-50 46.666 -82 60.999s-67.333 21.5 -106 21.5c-39.333 0 -74.833 -7.16699 -106.5 -21.5s-58.834 -34.666 -81.501 -60.999
s-40.167 -58 -52.5 -95s-18.5 -77.833 -18.5 -122.5c0 -45.333 6.16699 -86.333 18.5 -123s29.833 -68.167 52.5 -94.5s49.834 -46.666 81.501 -60.999s66.834 -21.5 105.501 -21.5c22 0 42.167 2 60.5 6s38.166 11.333 59.499 22l-74 62l46 56zM686 -59.0029l-105 86.999
c-30 -17.333 -60.167 -30.166 -90.5 -38.499s-63.833 -12.5 -100.5 -12.5c-52.667 0 -100.667 9.16699 -144 27.5s-80.333 44.333 -111 78s-54.5 73.834 -71.5 120.501s-25.5 98.667 -25.5 156s8.5 109.5 25.5 156.5s40.833 87.167 71.5 120.5s67.667 59.166 111 77.499
s91.333 27.5 144 27.5s100.5 -9.16699 143.5 -27.5s80 -44.166 111 -77.499s55 -73.333 72 -120s25.5 -98.334 25.5 -155.001c0 -114.667 -34.333 -209.667 -103 -285l94 -77z" />
    <glyph glyph-name="R" unicode="R" horiz-adv-x="722" 
d="M411 396c50 0 86.333 10 109 30s34 52 34 96c0 43.333 -11.333 75 -34 95s-59 30 -109 30h-225v-251h225zM186 0l-93.002 0.00195312v729h336c72.667 0 127.834 -16.667 165.501 -50s56.5 -81.666 56.5 -144.999c0 -42 -8.83301 -76.333 -26.5 -103
s-47.167 -50.334 -88.5 -71.001c20 -8.66699 36.333 -17.834 49 -27.501s22.667 -21.5 30 -35.5s12.5 -31.167 15.5 -51.5s4.5 -45.5 4.5 -75.5c0.666992 -24 1.66699 -44.167 3 -60.5s3.5 -29.833 6.5 -40.5s7.33301 -19.5 13 -26.5s12.834 -13.5 21.501 -19.5v-23h-113
c-6.66699 14 -11.834 31.667 -15.501 53s-5.5 42 -5.5 62l1 73c0 43.333 -9.66699 75.166 -29 95.499s-49.666 30.5 -90.999 30.5h-240v-314z" />
    <glyph glyph-name="S" unicode="S" horiz-adv-x="667" 
d="M508 515c-0.666992 48 -16.502 84.6641 -47.502 109.997s-75.833 38 -134.5 38c-49.333 0 -88.833 -11.167 -118.5 -33.5s-44.5 -52.166 -44.5 -89.499c0 -28 9 -50 27 -66s49 -30 93 -42l183 -49c50 -13.333 88.333 -35.666 115 -66.999s40 -70 40 -116
c0 -32 -7.16699 -63 -21.5 -93s-33.833 -54.667 -58.5 -74c-23.333 -18 -52.333 -31.833 -87 -41.5s-74 -14.5 -118 -14.5c-116.667 0 -200 36.667 -250 110c-12.667 19.333 -22 40.333 -28 63s-9.33301 50 -10 82h88c-0.666992 -45.333 13 -83.666 41 -114.999
c18 -20 40.333 -34.667 67 -44s59.334 -14 98.001 -14c60.667 0 105.334 10.333 134.001 31c15.333 11.333 27.833 26.166 37.5 44.499s14.5 37.166 14.5 56.499c0 28.667 -10.667 52.5 -32 71.5s-55.333 34.5 -102 46.5l-181 48c-95.333 24.667 -143 81.334 -143 170.001
c0 32.667 6 62.334 18 89.001s29.167 49.167 51.5 67.5s49.5 32.5 81.5 42.5s68 15 108 15c108.667 0 185.667 -33.333 231 -100c24 -34 36 -71.667 36 -113v-13h-88z" />
    <glyph glyph-name="T" unicode="T" horiz-adv-x="611" 
d="M354 0h-93v647h-240v82h572v-82h-239v-647z" />
    <glyph glyph-name="U" unicode="U" horiz-adv-x="722" 
d="M645 729v-511.999c0 -36.667 -6.66699 -69.667 -20 -99s-32.166 -54.5 -56.499 -75.5s-53.833 -37.167 -88.5 -48.5s-73.334 -17 -116.001 -17c-43.333 0 -82.166 5.5 -116.499 16.5s-63.5 27 -87.5 48s-42.5 46.167 -55.5 75.5s-19.5 62.666 -19.5 99.999v512h93v-512
c0 -28 4.33301 -51.5 13 -70.5s22 -35.5 40 -49.5c35.333 -25.333 79.666 -38 132.999 -38c58.667 0 104.667 14 138 42s50 66.667 50 116v512h93z" />
    <glyph glyph-name="V" unicode="V" horiz-adv-x="667" 
d="M292 0l-262 729h100l214 -617l202 617h99l-253 -729h-100z" />
    <glyph glyph-name="W" unicode="W" horiz-adv-x="944" 
d="M642 0l-168 599l-163 -599h-102l-187 729h104l137 -592l162 592h100l166 -592l134 592h104l-185 -729h-102z" />
    <glyph glyph-name="X" unicode="X" horiz-adv-x="667" 
d="M649 0h-115l-199 304l-200 -304h-113l258 374l-242 355h113l187 -286l188 286h111l-246 -355z" />
    <glyph glyph-name="Y" unicode="Y" horiz-adv-x="667" 
d="M387 0h-93v286l-281 443h115l214 -355l208 355h111l-274 -443v-286z" />
    <glyph glyph-name="Z" unicode="Z" horiz-adv-x="611" 
d="M581 645l-436 -563h438v-82h-555v82l438 565h-410v82h525v-84z" />
    <glyph glyph-name="bracketleft" unicode="[" horiz-adv-x="278" 
d="M250 657h-103v-797h103v-72h-186v941h186v-72z" />
    <glyph glyph-name="backslash" unicode="\" horiz-adv-x="278" 
d="M284 -20h-55l-237 749h55z" />
    <glyph glyph-name="bracketright" unicode="]" horiz-adv-x="278" 
d="M23 -140h103v797h-103v72h186v-941h-186v72z" />
    <glyph glyph-name="asciicircum" unicode="^" horiz-adv-x="469" 
d="M270 709l155 -380h-69l-122 300l-121 -300h-69l153 380h73z" />
    <glyph glyph-name="underscore" unicode="_" 
d="M578 -176h-600v50h600v-50z" />
    <glyph glyph-name="grave" unicode="`" horiz-adv-x="333" 
d="M231 592h-60l-149 148h113z" />
    <glyph glyph-name="a" unicode="a" 
d="M389 259c-7.33301 -3.33301 -14.1709 -6.16504 -20.5039 -8.49805s-14.166 -4.5 -23.499 -6.5s-21.166 -4.16699 -35.499 -6.5s-32.5 -4.83301 -54.5 -7.5c-45.333 -6.66699 -77.666 -17.334 -96.999 -32.001s-29 -36 -29 -64c0 -26.667 9 -47.334 27 -62.001
s43.333 -22 76 -22c48 0 89.333 15.667 124 47c12.667 11.333 21.334 22 26.001 32s7 22 7 36v94zM534.995 -13.999c-13.333 -3.33301 -23.833 -5.66602 -31.5 -6.99902s-16.167 -2 -25.5 -2c-27.333 0 -47.666 6 -60.999 18s-21.666 31.667 -24.999 59
c-30 -27.333 -58.833 -47 -86.5 -59s-58.167 -18 -91.5 -18c-53.333 0 -95.333 14 -126 42s-46 66 -46 114c0 68.667 32.333 115.667 97 141l22.5 7.5c7 2.33301 16.167 4.5 27.5 6.5s25.833 4.16699 43.5 6.5l69.5 9.5c33.333 4 56.166 10.333 68.499 19
s18.5 21.667 18.5 39v22c0 25.333 -10 44.666 -30 57.999s-49 20 -87 20c-39.333 0 -68.833 -7.5 -88.5 -22.5s-31.167 -38.5 -34.5 -70.5h-84c1.33301 27.333 4.83301 49.5 10.5 66.5s15.167 32.167 28.5 45.5c18 18.667 41.667 33 71 43s62.333 15 99 15
c65.333 0 114.666 -12.167 147.999 -36.5s50 -59.833 50 -106.5v-308c0 -27.333 15 -41 45 -41h7.5c2.33301 0 5.83301 0.666992 10.5 2v-63z" />
    <glyph glyph-name="b" unicode="b" 
d="M281 461c-21.333 0 -40.8311 -4.83301 -58.498 -14.5s-32.834 -23.334 -45.501 -41.001s-22.5 -39 -29.5 -64s-10.5 -52.833 -10.5 -83.5s3.5 -58.5 10.5 -83.5s16.833 -46.333 29.5 -64s28 -31.334 46 -41.001s38 -14.5 60 -14.5c22.667 0 43.5 4.83301 62.5 14.5
s35.167 23.334 48.5 41.001s23.666 39 30.999 64s11 52.5 11 82.5c0 62.667 -13.833 112.334 -41.5 149.001s-65.5 55 -113.5 55zM137.002 729v-276c19.333 30 42.166 51.833 68.499 65.5s57.5 20.5 93.5 20.5c34.667 0 65.834 -6.33301 93.501 -19
s51.167 -30.834 70.5 -54.501s34.166 -52.5 44.499 -86.5s15.5 -72.333 15.5 -115c0 -43.333 -5.33301 -82.666 -16 -117.999s-26 -65.5 -46 -90.5s-44 -44.333 -72 -58s-59.333 -20.5 -94 -20.5c-71.333 0 -126.666 30 -165.999 90v-67h-75v729h83z" />
    <glyph glyph-name="c" unicode="c" horiz-adv-x="500" 
d="M387 348c-5.33301 36.667 -18.499 64.834 -39.499 84.501s-49.167 29.5 -84.5 29.5c-46 0 -81.667 -18.333 -107 -55s-38 -88 -38 -154c0 -62.667 13 -111.5 39 -146.5s62 -52.5 108 -52.5c71.333 0 114 42 128 126h84c-5.33301 -64.667 -26.666 -114.667 -63.999 -150
s-87.333 -53 -150 -53c-35.333 0 -67.333 6.5 -96 19.5s-53 31.5 -73 55.5s-35.5 53 -46.5 87s-16.5 72 -16.5 114c0 43.333 5.5 82.666 16.5 117.999s26.667 65.5 47 90.5s44.833 44.167 73.5 57.5s60.667 20 96 20c38 0 72.167 -7.33301 102.5 -22
s54.166 -34.667 71.499 -60c9.33301 -14 16.666 -29.5 21.999 -46.5s9 -37.833 11 -62.5h-84z" />
    <glyph glyph-name="d" unicode="d" 
d="M263 461c-22 0 -42.332 -4.83398 -60.999 -14.501s-34.5 -23.5 -47.5 -41.5s-23.167 -39.5 -30.5 -64.5s-11 -52.5 -11 -82.5c0 -30.667 3.66699 -58.5 11 -83.5s17.666 -46.333 30.999 -64s29.333 -31.334 48 -41.001s39.667 -14.5 63 -14.5c22 0 42 4.83301 60 14.5
s33.333 23.334 46 41.001s22.5 38.834 29.5 63.501s10.5 52.334 10.5 83.001c0 63.333 -13.333 113.166 -40 149.499s-63 54.5 -109 54.5zM495.001 -0.000976562l-74.001 -0.000976562v69c-22.667 -32.667 -47.167 -56.167 -73.5 -70.5s-57.5 -21.5 -93.5 -21.5
c-35.333 0 -67.166 6.5 -95.499 19.5s-52.333 31.833 -72 56.5s-34.667 54.834 -45 90.501s-15.5 75.834 -15.5 120.501c0 41.333 5.33301 79 16 113s25.834 63 45.501 87s43.334 42.5 71.001 55.5s58.5 19.5 92.5 19.5c35.333 0 66.666 -6.83301 93.999 -20.5
s49.666 -33.834 66.999 -60.501v271h83v-729z" />
    <glyph glyph-name="e" unicode="e" 
d="M423 302c0 23.333 -3.5 44.833 -10.5 64.5s-16.833 36.5 -29.5 50.5s-27.834 25 -45.501 33s-37.167 12 -58.5 12c-42 0 -76.667 -14.5 -104 -43.5s-42.666 -67.833 -45.999 -116.5h294zM127 234c0.666992 -27.333 3.16699 -49.667 7.5 -67s11.833 -33.666 22.5 -48.999
c14.667 -20.667 32.667 -36.5 54 -47.5s44.666 -16.5 69.999 -16.5c68 0 113.667 35 137 105h84c-10.667 -57.333 -35.5 -102 -74.5 -134s-88.833 -48 -149.5 -48c-37.333 0 -70.666 6.33301 -99.999 19s-54.166 31 -74.499 55s-36 53.167 -47 87.5
s-16.5 73.166 -16.5 116.499s5.66699 82.5 17 117.5s27.5 64.833 48.5 89.5s46.167 43.667 75.5 57s62.333 20 99 20c50.667 0 95.167 -12.833 133.5 -38.5s65.166 -61.167 80.499 -106.5c7.33301 -18.667 12.333 -40.5 15 -65.5s4 -56.5 4 -94.5h-386z" />
    <glyph glyph-name="f" unicode="f" horiz-adv-x="278" 
d="M258 456h-87.0029v-456h-83v456h-70v68h70v89c0 38 10.833 67.333 32.5 88s51.834 31 90.501 31c8.66699 0 16.334 -0.333008 23.001 -1s14.667 -2 24 -4v-69c-9.33301 0.666992 -15.666 1 -18.999 1h-10c-38.667 0 -58 -17.667 -58 -53v-82h87v-68z" />
    <glyph glyph-name="g" unicode="g" 
d="M259 462c-44 0 -78.833 -18.332 -104.5 -54.999s-38.5 -86.334 -38.5 -149.001c0 -64 12.833 -114 38.5 -150s61.5 -54 107.5 -54c44.667 0 79.5 17.833 104.5 53.5s37.5 85.5 37.5 149.5c0 65.333 -12.667 115.833 -38 151.5s-61 53.5 -107 53.5zM489 524.001
l-0.00292969 -438.002c0 -61.333 -4.16699 -110.166 -12.5 -146.499s-22.5 -66.5 -42.5 -90.5c-17.333 -21.333 -41.666 -37.833 -72.999 -49.5s-66.666 -17.5 -105.999 -17.5c-62 0 -111.167 13.833 -147.5 41.5s-56.833 66.5 -61.5 116.5h85
c2.66699 -15.333 6.33398 -27.5 11.001 -36.5s12.334 -17.167 23.001 -24.5c11.333 -9.33301 25 -16.166 41 -20.499s33.333 -6.5 52 -6.5c25.333 0 48.166 4.33301 68.499 13s36.166 20.667 47.499 36c10.667 15.333 18.334 34 23.001 56s7 51 7 87v27
c-23.333 -33.333 -47.5 -57.333 -72.5 -72s-53.5 -22 -85.5 -22c-28 0 -55.333 6.16699 -82 18.5s-49.667 29.5 -69 51.5c-44 51.333 -66 120 -66 206c0 42.667 5.33301 81.667 16 117s25.834 65.5 45.501 90.5s43.167 44.333 70.5 58s57.666 20.5 90.999 20.5
c34 0 63.833 -7.33301 89.5 -22s49.167 -37.667 70.5 -69v76h77z" />
    <glyph glyph-name="h" unicode="h" 
d="M153 729l0.00292969 -277c12 16 24.167 29.5 36.5 40.5s25.166 20 38.499 27s27.5 12 42.5 15s31.833 4.5 50.5 4.5c51.333 0 91.666 -12.833 120.999 -38.5s44 -60.5 44 -104.5v-396h-83v363c0 36 -11.333 62.667 -34 80c-20.667 15.333 -45.334 23 -74.001 23
c-43.333 0 -77.833 -16 -103.5 -48s-38.5 -75 -38.5 -129v-289h-83v729h83z" />
    <glyph glyph-name="i" unicode="i" horiz-adv-x="222" 
d="M150 624h-84v105h84v-105zM150 0h-83v524h83v-524z" />
    <glyph glyph-name="j" unicode="j" horiz-adv-x="222" 
d="M153 624h-83v105h83v-105zM153 524l-0.000976562 -633c0 -72.667 -47.667 -109 -143 -109c-6.66699 0 -11.667 0.166992 -15 0.5s-7.66602 1.16602 -12.999 2.49902v71c5.33301 -0.666992 9.16602 -1 11.499 -1h7.5c26.667 0 44.834 4.83301 54.501 14.5
s14.5 27.834 14.5 54.501v600h83z" />
    <glyph glyph-name="k" unicode="k" horiz-adv-x="500" 
d="M141 302l222 222h107l-182 -181l214 -343h-103l-177 284l-81 -80v-204h-83v729h83v-427z" />
    <glyph glyph-name="l" unicode="l" horiz-adv-x="222" 
d="M152 0h-84v729h84v-729z" />
    <glyph glyph-name="m" unicode="m" horiz-adv-x="833" 
d="M147 524v-73.9941c22 32 45.5 54.833 70.5 68.5s55.167 20.5 90.5 20.5c34 0 62.167 -6.33301 84.5 -19s41.166 -33 56.499 -61c12 14.667 24 27.167 36 37.5s24.333 18.666 37 24.999s26.167 10.833 40.5 13.5s30.166 4 47.499 4c49.333 0 87 -12.5 113 -37.5
s39 -61.167 39 -108.5v-393h-84v361c0 33.333 -8.5 59.166 -25.5 77.499s-40.833 27.5 -71.5 27.5c-17.333 0 -33.333 -3.5 -48 -10.5s-27.667 -16.833 -39 -29.5s-20.166 -27.334 -26.499 -44.001s-9.5 -34.334 -9.5 -53.001v-329h-84v361c0 34 -8.33301 60 -25 78
s-40.667 27 -72 27c-17.333 0 -33.333 -3.5 -48 -10.5s-27.667 -16.833 -39 -29.5s-20.166 -27.334 -26.499 -44.001s-9.5 -34.334 -9.5 -53.001v-329h-84v524h77z" />
    <glyph glyph-name="n" unicode="n" 
d="M147 524l-0.000976562 -88c22.667 36.667 47.5 63 74.5 79s60.167 24 99.5 24c50.667 0 91 -12.833 121 -38.5s45 -60.5 45 -104.5v-396h-83v363c0 32 -9.66699 57.167 -29 75.5s-45.666 27.5 -78.999 27.5c-43.333 0 -77.833 -16 -103.5 -48s-38.5 -75 -38.5 -129v-289
h-84v524h77z" />
    <glyph glyph-name="o" unicode="o" 
d="M271 462c-46 0 -82.1689 -18.168 -108.502 -54.501s-39.5 -86.166 -39.5 -149.499c0 -64 13.333 -114 40 -150s63.334 -54 110.001 -54s83.334 18 110.001 54s40 85.667 40 149c0 64.667 -13.333 115 -40 151s-64 54 -112 54zM276.998 538.999
c36 0 68.502 -6.50098 97.502 -19.501s53.5 -31.5 73.5 -55.5s35.333 -53.333 46 -88s16 -74 16 -118c0 -88.667 -20.833 -157.667 -62.5 -207s-99.834 -74 -174.501 -74s-132.834 24.5 -174.501 73.5s-62.5 117.833 -62.5 206.5c0 90.667 20.833 160.334 62.5 209.001
s101.167 73 178.5 73z" />
    <glyph glyph-name="p" unicode="p" 
d="M282 461c-44 0 -79.001 -18.501 -105.001 -55.501s-39 -86.167 -39 -147.5c0 -30.667 3.5 -58.5 10.5 -83.5s16.833 -46.333 29.5 -64s28 -31.334 46 -41.001s38 -14.5 60 -14.5c22.667 0 43.334 4.83301 62.001 14.5s34.667 23.334 48 41.001s23.666 39 30.999 64
s11 52.5 11 82.5c0 30.667 -3.66699 58.667 -11 84s-17.666 46.833 -30.999 64.5s-29.5 31.334 -48.5 41.001s-40.167 14.5 -63.5 14.5zM53.999 523.999l76.998 0.000976562v-79c39.333 62.667 95 94 167 94c34.667 0 65.834 -6.66699 93.501 -20s51.334 -32.333 71.001 -57
s34.667 -54.667 45 -90s15.5 -75 15.5 -119c0 -42 -5.33301 -80 -16 -114s-25.667 -63 -45 -87s-42.833 -42.5 -70.5 -55.5s-58.5 -19.5 -92.5 -19.5s-63.833 6.16699 -89.5 18.5s-49.5 32.166 -71.5 59.499v-273h-84v742z" />
    <glyph glyph-name="q" unicode="q" 
d="M264 461c-22.667 0 -43.168 -4.83398 -61.501 -14.501s-34.166 -23.5 -47.499 -41.5s-23.666 -39.5 -30.999 -64.5s-11 -52.5 -11 -82.5c0 -30.667 3.66699 -58.5 11 -83.5s17.666 -46.333 30.999 -64s29.333 -31.334 48 -41.001s39.667 -14.5 63 -14.5
c22 0 42 4.83301 60 14.5s33.333 23.334 46 41.001s22.5 38.834 29.5 63.501s10.5 52.334 10.5 83.001c0 63.333 -13.167 113.166 -39.5 149.499s-62.5 54.5 -108.5 54.5zM411.999 -218.001l-0.000976562 278c-19.333 -28.667 -42 -49.667 -68 -63s-57.333 -20 -94 -20
c-34.667 0 -65.834 6.33301 -93.501 19s-51.167 30.834 -70.5 54.501s-34.166 52.5 -44.499 86.5s-15.5 72.333 -15.5 115c0 43.333 5.33301 82.666 16 117.999s26 65.5 46 90.5s44 44.333 72 58s59.333 20.5 94 20.5s66.334 -7.16699 95.001 -21.5s52.667 -35.5 72 -63.5
v70h74v-742h-83z" />
    <glyph glyph-name="r" unicode="r" horiz-adv-x="333" 
d="M146 524l0.00195312 -95.002c24 39.333 47 67.5 69 84.5s46.667 25.5 74 25.5c5.33301 0 10.166 -0.166992 14.499 -0.5s10.166 -1.16602 17.499 -2.49902v-85c-15.333 0 -28.5 -0.5 -39.5 -1.5s-20.833 -2.66699 -29.5 -5s-16.5 -5.33301 -23.5 -9
s-13.833 -8.16699 -20.5 -13.5c-18.667 -15.333 -32.5 -35.166 -41.5 -59.499s-13.5 -54.5 -13.5 -90.5v-272h-84v524h77z" />
    <glyph glyph-name="s" unicode="s" horiz-adv-x="500" 
d="M350 378c-2 56 -37.0049 84.0029 -105.005 84.0029c-34 0 -61 -7 -81 -21s-30 -33.333 -30 -58c0 -18.667 7.66699 -33.834 23 -45.501s40 -21.5 74 -29.5l80 -19c52 -12.667 89.667 -30.334 113 -53.001s35 -53.667 35 -93c0 -25.333 -5 -48.166 -15 -68.499
s-24.5 -37.833 -43.5 -52.5s-41.833 -25.834 -68.5 -33.501s-56.334 -11.5 -89.001 -11.5c-135.333 0 -205 59.667 -209 179h88c2.66699 -19.333 5.83398 -33.833 9.50098 -43.5s9.16699 -18.167 16.5 -25.5c10.667 -10.667 25 -18.834 43 -24.501s37.667 -8.5 59 -8.5
c36.667 0 66.167 7.5 88.5 22.5s33.5 35.167 33.5 60.5c0 18.667 -6.16699 33.5 -18.5 44.5s-33.166 20.167 -62.499 27.5l-78 19c-31.333 7.33301 -57.5 15.5 -78.5 24.5s-38 19.5 -51 31.5s-22.333 25.667 -28 41s-8.5 33.333 -8.5 54c0 24 4.66699 45.833 14 65.5
s22.833 36.5 40.5 50.5s38.834 24.833 63.501 32.5s52.334 11.5 83.001 11.5c60.667 0 107.334 -13.833 140.001 -41.5s49.334 -67.5 50.001 -119.5h-88z" />
    <glyph glyph-name="t" unicode="t" horiz-adv-x="278" 
d="M254 456h-86v-359c0 -18.667 3.16699 -31.167 9.5 -37.5s18.5 -9.5 36.5 -9.5c16 0 29.333 1.33301 40 4v-70c-14 -2.66699 -26 -4.5 -36 -5.5s-20.667 -1.5 -32 -1.5c-32.667 0 -57.667 7 -75 21s-26 34.667 -26 62v396h-71v68h71v144h83v-144h86v-68z" />
    <glyph glyph-name="u" unicode="u" 
d="M407 0l0.00292969 73.001c-24.667 -34.667 -50.334 -59.334 -77.001 -74.001s-59.334 -22 -98.001 -22c-51.333 0 -92 12.833 -122 38.5s-45 60.5 -45 104.5v404h83v-371c0 -32 9.66699 -57.167 29 -75.5s45.666 -27.5 78.999 -27.5c44 0 78.833 16 104.5 48
s38.5 75 38.5 129v297h83v-524h-75z" />
    <glyph glyph-name="v" unicode="v" horiz-adv-x="500" 
d="M194 0l-184 524h94l140 -425l148 425h94l-201 -524h-91z" />
    <glyph glyph-name="w" unicode="w" horiz-adv-x="722" 
d="M459 0l-106 411l-101 -411h-94l-152 524h92l107 -408l100 408h102l103 -408l104 408h94l-154 -524h-95z" />
    <glyph glyph-name="x" unicode="x" horiz-adv-x="500" 
d="M473 0h-97l-131 201l-133 -201h-95l185 267l-175 257h95l126 -190l126 190h94l-176 -253z" />
    <glyph glyph-name="y" unicode="y" horiz-adv-x="500" 
d="M478 524l-232.997 -634.001c-27.333 -72 -72.333 -108 -135 -108c-20.667 0 -39.334 4.33301 -56.001 13v75c9.33301 -2 17.166 -3.5 23.499 -4.5s13.166 -1.5 20.499 -1.5c17.333 0 31 3.83301 41 11.5s18.667 20.834 26 39.501l32 83l-177 526h89l134 -408l145 408h90z
" />
    <glyph glyph-name="z" unicode="z" horiz-adv-x="500" 
d="M443 450l-311 -377h325v-73h-426v75l313 376h-292v73h391v-74z" />
    <glyph glyph-name="braceleft" unicode="{" horiz-adv-x="334" 
d="M276 664h-15.001c-24.667 0 -41.334 -4.66699 -50.001 -14s-13 -27 -13 -53v-181c0 -46 -6 -80.667 -18 -104s-33.333 -41 -64 -53c28 -13.333 48.667 -32.5 62 -57.5s20 -58.5 20 -100.5v-181c0 -26 4.33301 -43.667 13 -53s25.334 -14 50.001 -14h15v-65h-46
c-34.667 0 -61.5 11.333 -80.5 34s-28.5 55 -28.5 97v167c0 46 -5.66699 79 -17 99s-31.666 33 -60.999 39v69c14.667 2.66699 27 7.16699 37 13.5s18 14.833 24 25.5s10.333 24 13 40s4 35.667 4 59v167c0 42 9.5 74.333 28.5 97s45.833 34 80.5 34h46v-65z" />
    <glyph glyph-name="bar" unicode="|" horiz-adv-x="260" 
d="M160 729v-941h-60v941h60z" />
    <glyph glyph-name="braceright" unicode="}" horiz-adv-x="334" 
d="M29 -147l16 0.00195312c25.333 0 42.333 4.66699 51 14s13 27 13 53v181c0 42 6.66699 75.5 20 100.5s34 43.833 62 56.5c-28 13.333 -48.667 32.666 -62 57.999s-20 58.666 -20 99.999v181c0 26 -4.33301 43.667 -13 53s-25.667 14 -51 14h-16v65h47
c35.333 0 62.5 -11.333 81.5 -34s28.5 -55 28.5 -97v-167c0 -46 5.5 -79 16.5 -99s30.833 -33 59.5 -39v-69c-28.667 -6 -48.5 -19 -59.5 -39s-16.5 -53 -16.5 -99v-167c0 -42 -9.5 -74.333 -28.5 -97s-46.167 -34 -81.5 -34h-47v65z" />
    <glyph glyph-name="asciitilde" unicode="~" horiz-adv-x="584" 
d="M508 411l-0.000976562 -16.001c0 -39.333 -9.5 -70.333 -28.5 -93s-44.5 -34 -76.5 -34c-12.667 0 -26 2.33301 -40 7s-27.667 11 -41 19l-98 63c-5.33301 3.33301 -12.5 6.5 -21.5 9.5s-16.167 4.5 -21.5 4.5c-9.33301 0 -18 -3.16699 -26 -9.5
s-14.333 -15.166 -19 -26.499c-2 -5.33301 -3.5 -10.833 -4.5 -16.5s-2.16699 -14.167 -3.5 -25.5h-53c5.33301 96.667 41.333 145 108 145c19.333 0 37.333 -5.33301 54 -16l117 -69c18.667 -11.333 35.334 -17 50.001 -17c34 0 51 22.333 51 67v8h53z" />
    <glyph glyph-name="nonbreakingspace" unicode="&#xa0;" horiz-adv-x="278" 
 />
    <glyph glyph-name="exclamdown" unicode="&#xa1;" horiz-adv-x="609" 
d="M213 931c4.66699 -44 35.335 -65.998 92.002 -65.998c27.333 0 48.833 5.66699 64.5 17s24.5 27.666 26.5 48.999h59c-7.33301 -90 -58 -135 -152 -135c-29.333 0 -55 5.16699 -77 15.5s-39.667 25.166 -53 44.499c-6.66699 9.33301 -11.334 19.5 -14.001 30.5
s-4.33398 25.833 -5.00098 44.5h59zM129.001 82.002h56.001c12 0 21.833 0.833008 29.5 2.5s14.667 5.16699 21 10.5s12.166 12.833 17.499 22.5s11.333 22.5 18 38.5l-265 573h112l199 -462l188 462h110l-277 -637c-13.333 -30 -30.333 -52.833 -51 -68.5
s-44 -23.5 -70 -23.5h-88v82z" />
    <glyph glyph-name="cent" unicode="&#xa2;" horiz-adv-x="500" 
d="M158 732c4.66699 -44 35.335 -65.999 92.002 -65.999c27.333 0 48.833 5.66699 64.5 17s24.5 27.666 26.5 48.999h59c-7.33301 -90 -58 -135 -152 -135c-29.333 0 -55 5.16699 -77 15.5s-39.667 25.166 -53 44.499c-6.66699 10 -11.334 20.333 -14.001 31
s-4.33398 25.334 -5.00098 44.001h59zM480.001 524.001l-234.001 -634c-27.333 -72 -72.333 -108 -135 -108c-21.333 0 -39.666 3.66699 -54.999 11v77c15.333 -5.33301 30.333 -8 45 -8c17.333 0 30.833 4 40.5 12s18.167 21.667 25.5 41l32 85l-177 524h89l135 -408
l144 408h90z" />
    <glyph glyph-name="sterling" unicode="&#xa3;" horiz-adv-x="503" 
d="M426 729l-0.000976562 -547.001c0 -32 -4.33301 -59.833 -13 -83.5s-22.667 -45.167 -42 -64.5s-41.166 -33.666 -65.499 -42.999s-53.5 -14 -87.5 -14c-61.333 0 -110.166 17.333 -146.499 52s-54.5 81.667 -54.5 141v64h94v-47c0 -42 9.5 -74.5 28.5 -97.5
s46.167 -34.5 81.5 -34.5c18.667 0 35.667 4 51 12s27.666 19 36.999 33c8.66699 12.667 14.667 27.667 18 45s5 41 5 71v513h94z" />
    <glyph glyph-name="currency" unicode="&#xa4;" 
d="M273 445c-14 0 -27.5029 -2.83398 -40.5029 -8.50098s-24.167 -13.167 -33.5 -22.5s-16.833 -20.333 -22.5 -33s-8.5 -26.334 -8.5 -41.001c0 -14 2.83301 -27.333 8.5 -40s13.334 -23.834 23.001 -33.501s21 -17.167 34 -22.5s26.833 -8 41.5 -8
s28.334 2.66699 41.001 8s23.834 12.833 33.501 22.5s17.334 20.834 23.001 33.501s8.5 26 8.5 40c0 14.667 -2.83301 28.334 -8.5 41.001s-13.334 23.834 -23.001 33.501s-21 17.167 -34 22.5s-27.167 8 -42.5 8zM426.997 135.999l-53.002 52.999
c-27.333 -20 -60.666 -30 -99.999 -30c-16.667 0 -33.167 2.16699 -49.5 6.5s-31.166 10.5 -44.499 18.5l-51 -51l-56 57l48 49c-10 13.333 -17.833 29 -23.5 47s-8.5 36.333 -8.5 55c0 18 2.83301 35.833 8.5 53.5s13.5 33.834 23.5 48.501l-54 55l56 53l55 -55
c29.333 17.333 61.666 26 96.999 26c38.667 0 71.334 -9.33301 98.001 -28l59 53l57 -58l-55 -55c8 -13.333 14.333 -28 19 -44s7 -32.333 7 -49c0 -34.667 -9.66699 -67 -29 -97l54 -54z" />
    <glyph glyph-name="yen" unicode="&#xa5;" horiz-adv-x="538" 
d="M570 877h113l-149 -148v-82h-360v-647h-94v729h394z" />
    <glyph glyph-name="brokenbar" unicode="&#xa6;" horiz-adv-x="260" 
d="M160 189v-401h-60v401h60zM160 729v-401h-60v401h60z" />
    <glyph glyph-name="section" unicode="&#xa7;" 
d="M354 106c23.333 12.667 41.334 27.834 54.001 45.501s19 36.5 19 56.5c0 40.667 -24.333 78 -73 112l-161 109c-26 -17.333 -44.333 -33.333 -55 -48s-16 -32.334 -16 -53.001c0 -10 1 -19 3 -27s5.5 -15.667 10.5 -23s11.667 -14.833 20 -22.5
s19.166 -16.5 32.499 -26.5zM380.001 524v9.00195v17c0 31.333 -8.66699 56.166 -26 74.499s-41 27.5 -71 27.5c-25.333 0 -46.5 -8 -63.5 -24s-25.5 -36.333 -25.5 -61c0 -14.667 4.16699 -27.667 12.5 -39s23.166 -24 44.499 -38l146 -94c20 -13.333 37 -26 51 -38
s25.333 -24.667 34 -38s14.834 -27.333 18.501 -42s5.5 -31 5.5 -49c0 -77.333 -36.333 -129.333 -109 -156c20 -22.667 33.833 -42.667 41.5 -60s11.5 -36.666 11.5 -57.999c0 -24 -4.66699 -46.333 -14 -67s-22.333 -38.5 -39 -53.5s-36.5 -26.667 -59.5 -35
s-47.833 -12.5 -74.5 -12.5c-57.333 0 -102.5 16.667 -135.5 50s-49.833 79 -50.5 137v12h85c0 -20 1.33301 -35.833 4 -47.5s7.66699 -22.834 15 -33.501c20 -27.333 47.667 -41 83 -41c28.667 0 51.834 8 69.501 24s26.5 36.667 26.5 62c0 17.333 -4.33301 33 -13 47
s-22.667 27.667 -42 41l-170 117c-32.667 23.333 -56.167 47 -70.5 71s-21.5 52.667 -21.5 86c0 34 8.16699 62.667 24.5 86s43.166 44.666 80.499 63.999c-15.333 17.333 -26.5 33.833 -33.5 49.5s-10.5 33.167 -10.5 52.5c0 22.667 4.83301 44.167 14.5 64.5
s22.667 37.833 39 52.5s35.833 26.334 58.5 35.001s47 13 73 13s49.667 -4.33301 71 -13s39.833 -20.667 55.5 -36s27.667 -33.833 36 -55.5s12.5 -45.834 12.5 -72.501v-20v-8h-84z" />
    <glyph glyph-name="dieresis" unicode="&#xa8;" horiz-adv-x="657" 
d="M467 811h-104v103h104v-103zM305 811h-104v103h104v-103zM174 82h429v-82h-523v729h505v-82h-411v-233h396v-82h-396v-250z" />
    <glyph glyph-name="copyright" unicode="&#xa9;" horiz-adv-x="737" 
d="M473 437c-8.66699 33.333 -20.4951 57.1699 -35.4951 71.5029s-35.5 21.5 -61.5 21.5c-38.667 0 -69.334 -15.5 -92.001 -46.5s-34 -72.833 -34 -125.5s12 -94 36 -124c10.667 -13.333 24.167 -24.333 40.5 -33s32.166 -13 47.499 -13c58 0 93.667 41.333 107 124h71
c-6 -31.333 -12.167 -55.5 -18.5 -72.5s-14.833 -32.5 -25.5 -46.5c-32.667 -44.667 -77 -67 -133 -67c-28.667 0 -55 5.66699 -79 17s-44.5 27.166 -61.5 47.499s-30.167 44.666 -39.5 72.999s-14 59.5 -14 93.5c0 35.333 4.66699 67.5 14 96.5s22.666 53.667 39.999 74
s38.166 36.166 62.499 47.499s51.166 17 80.499 17c44.667 0 80.5 -12.5 107.5 -37.5s46.5 -64.167 58.5 -117.5h-71zM365.005 680.004c-42 0 -81.832 -8.50098 -119.499 -25.501s-70.667 -40 -99 -69s-50.666 -62.833 -66.999 -101.5s-24.5 -80 -24.5 -124
s8.16699 -85.5 24.5 -124.5s38.833 -73 67.5 -102s62 -51.833 100 -68.5s78.667 -25 122 -25s84 8.33301 122 25s71.333 39.5 100 68.5s51.167 62.833 67.5 101.5s24.5 80 24.5 124c0 44.667 -8.16699 86.667 -24.5 126s-38.833 73.333 -67.5 102
s-62.334 51.334 -101.001 68.001s-80.334 25 -125.001 25zM374.006 742.003c51.333 0 99.833 -10.166 145.5 -30.499s85.667 -47.833 120 -82.5s61.5 -75.167 81.5 -121.5s30 -95.5 30 -147.5c0 -52.667 -10 -102.167 -30 -148.5s-47.333 -86.833 -82 -121.5
s-75.167 -62 -121.5 -82s-95.833 -30 -148.5 -30s-102.167 10 -148.5 30s-86.833 47.167 -121.5 81.5s-62 74.666 -82 120.999s-30 95.833 -30 148.5c0 53.333 10 103.333 30 150s47.5 87.167 82.5 121.5s76 61.5 123 81.5s97.5 30 151.5 30z" />
    <glyph glyph-name="ordfeminine" unicode="&#xaa;" horiz-adv-x="764" 
d="M132 323c8 -82.667 34.6689 -147.33 80.002 -193.997s104.333 -70 177 -70c34.667 0 67.5 6.16699 98.5 18.5s57.833 30.166 80.5 53.499c16 16.667 28.833 34.167 38.5 52.5s19.167 42.833 28.5 73.5l92 -16c-6 -20 -12 -37.667 -18 -53s-12.333 -29.333 -19 -42
s-14.167 -24.5 -22.5 -35.5s-17.833 -22.167 -28.5 -33.5c-32 -32.667 -69 -57.5 -111 -74.5s-88.333 -25.5 -139 -25.5c-52.667 0 -100.667 9.16699 -144 27.5s-80.333 44.166 -111 77.499s-54.5 73.5 -71.5 120.5s-25.5 99.167 -25.5 156.5s8.5 109.5 25.5 156.5
s40.833 87.167 71.5 120.5s67.667 59.166 111 77.499s91.333 27.5 144 27.5c157.333 0 265.666 -74 324.999 -222l-92 -18c-21.333 52 -51.833 91.333 -91.5 118s-86.834 40 -141.501 40c-49.333 0 -93.333 -11.667 -132 -35s-68.667 -56 -90 -98
c-9.33301 -17.333 -16.5 -35.333 -21.5 -54s-9.16699 -40.667 -12.5 -66h313v-83h-314z" />
    <glyph glyph-name="guillemotleft" unicode="&#xab;" 
d="M303 316l152 122v-83l-106 -83l106 -83v-83l-152 121v89zM98 316l152 122v-83l-106 -83l106 -83v-83l-152 121v89z" />
    <glyph glyph-name="logicalnot" unicode="&#xac;" horiz-adv-x="584" 
d="M544 375v-289h-70v219h-434v70h504z" />
    <glyph glyph-name="registered" unicode="&#xae;" horiz-adv-x="737" 
d="M401 388c26 0 45.001 5.33301 57.001 16s18 27.667 18 51s-5.83301 40.333 -17.5 51s-30.834 16 -57.501 16h-129v-134h129zM272.001 140l-69.999 -0.000976562v445h206c94 0 141 -41.667 141 -125c0 -23.333 -3.83301 -42.166 -11.5 -56.499
s-21.834 -28.833 -42.501 -43.5c9.33301 -6 16.833 -11.833 22.5 -17.5s10.167 -12.5 13.5 -20.5s5.66602 -17.833 6.99902 -29.5s2 -26.5 2 -44.5c0 -14.667 0.5 -26.5 1.5 -35.5s2.33301 -16.5 4 -22.5s3.83398 -10.833 6.50098 -14.5s6.33398 -7.16699 11.001 -10.5v-25
h-79c-4.66699 10 -8.33398 21.667 -11.001 35s-4 26.333 -4 39l1 46c0 43.333 -21.333 65 -64 65h-134v-185zM365.002 679.999c-42 0 -81.832 -8.50098 -119.499 -25.501s-70.667 -40 -99 -69s-50.666 -62.833 -66.999 -101.5s-24.5 -80 -24.5 -124
s8.16699 -85.5 24.5 -124.5s38.833 -73 67.5 -102s62 -51.833 100 -68.5s78.667 -25 122 -25s84 8.33301 122 25s71.333 39.5 100 68.5s51.167 62.833 67.5 101.5s24.5 80 24.5 124c0 44.667 -8.16699 86.667 -24.5 126s-38.833 73.333 -67.5 102
s-62.334 51.334 -101.001 68.001s-80.334 25 -125.001 25zM374.003 741.998c51.333 0 99.833 -10.166 145.5 -30.499s85.667 -47.833 120 -82.5s61.5 -75.167 81.5 -121.5s30 -95.5 30 -147.5c0 -52.667 -10 -102.167 -30 -148.5s-47.333 -86.833 -82 -121.5
s-75.167 -62 -121.5 -82s-95.833 -30 -148.5 -30s-102.167 10 -148.5 30s-86.833 47.167 -121.5 81.5s-62 74.666 -82 120.999s-30 95.833 -30 148.5c0 53.333 10 103.333 30 150s47.5 87.167 82.5 121.5s76 61.5 123 81.5s97.5 30 151.5 30z" />
    <glyph glyph-name="macron" unicode="&#xaf;" horiz-adv-x="278" 
d="M272 811h-104v103h104v-103zM110 811h-104v103h104v-103zM186 0h-94v729h94v-729z" />
    <glyph glyph-name="macron" unicode="&#x2c9;" horiz-adv-x="278" 
d="M272 811h-104v103h104v-103zM110 811h-104v103h104v-103zM186 0h-94v729h94v-729z" />
    <glyph glyph-name="degree" unicode="&#xb0;" horiz-adv-x="606" 
d="M301 629c-12.667 0 -24.6689 -2.49609 -36.002 -7.49609s-21.166 -11.833 -29.499 -20.5s-15 -18.834 -20 -30.501s-7.5 -23.834 -7.5 -36.501s2.5 -24.667 7.5 -36s11.833 -21.333 20.5 -30s18.667 -15.5 30 -20.5s23.666 -7.5 36.999 -7.5
c12.667 0 24.834 2.5 36.501 7.5s21.667 11.667 30 20s15 18.166 20 29.499s7.5 23.666 7.5 36.999c0 26.667 -9.16699 49.167 -27.5 67.5s-41.166 27.5 -68.499 27.5zM303.998 686.004c20.667 0 40.001 -3.99902 58.001 -11.999s33.833 -19 47.5 -33
s24.5 -30.167 32.5 -48.5s12 -37.833 12 -58.5s-4 -40.167 -12 -58.5s-18.833 -34.333 -32.5 -48s-29.834 -24.5 -48.501 -32.5s-38.334 -12 -59.001 -12s-40.167 4 -58.5 12s-34.333 18.833 -48 32.5s-24.5 29.667 -32.5 48s-12 37.833 -12 58.5
c0 21.333 4 41.166 12 59.499s18.833 34.333 32.5 48s29.834 24.5 48.501 32.5s38.667 12 60 12z" />
    <glyph glyph-name="plusminus" unicode="&#xb1;" horiz-adv-x="584" 
d="M534 -11h-484v70h484v-70zM534 346h-207v-207h-70v207h-207v70h207v207h70v-207h207v-70z" />
    <glyph glyph-name="twosuperior" unicode="&#xb2;" horiz-adv-x="278" 
d="M186 0h-94v729h94v-729z" />
    <glyph glyph-name="threesuperior" unicode="&#xb3;" horiz-adv-x="225" 
d="M155 624h-84v105h84v-105zM155 0h-84v524h84v-524z" />
    <glyph glyph-name="acute" unicode="&#xb4;" horiz-adv-x="399" 
d="M433 672h113l-149 -148v-74h-233v-450h-84v524h257z" />
    <glyph glyph-name="mu" unicode="&#xb5;" 
d="M544 -14c-13.333 -3.33301 -23.832 -5.66699 -31.499 -7s-16.167 -2 -25.5 -2c-55.333 0 -84 27.667 -86 83c-40 -55.333 -94.333 -83 -163 -83c-36 0 -66 8.66699 -90 26v-223h-83v744h83v-371c0 -32 9.66699 -57.167 29 -75.5s45.333 -27.5 78 -27.5
c44 0 78.833 16 104.5 48s38.5 75 38.5 129v297h83v-436c0 -27.333 15 -41 45 -41h6.5c2.33301 0 6.16602 0.666992 11.499 2v-63z" />
    <glyph glyph-name="mu" unicode="&#x3bc;" 
d="M544 -14c-13.333 -3.33301 -23.832 -5.66699 -31.499 -7s-16.167 -2 -25.5 -2c-55.333 0 -84 27.667 -86 83c-40 -55.333 -94.333 -83 -163 -83c-36 0 -66 8.66699 -90 26v-223h-83v744h83v-371c0 -32 9.66699 -57.167 29 -75.5s45.333 -27.5 78 -27.5
c44 0 78.833 16 104.5 48s38.5 75 38.5 129v297h83v-436c0 -27.333 15 -41 45 -41h6.5c2.33301 0 6.16602 0.666992 11.499 2v-63z" />
    <glyph glyph-name="paragraph" unicode="&#xb6;" horiz-adv-x="537" 
d="M522 665h-56.9971v-842h-64v842h-82v-842h-64v436c-28.667 1.33301 -52.834 5.83301 -72.501 13.5s-38.834 19.167 -57.501 34.5c-24 21.333 -42.833 48 -56.5 80s-20.5 66 -20.5 102c0 34 5.83301 65.5 17.5 94.5s27.5 54.333 47.5 76s43.667 38.667 71 51
s56.666 18.5 87.999 18.5h250v-64z" />
    <glyph glyph-name="periodcentered" unicode="&#xb7;" horiz-adv-x="278" 
d="M211 302h-124v125h124v-125z" />
    <glyph glyph-name="periodcentered" unicode="&#x2219;" horiz-adv-x="278" 
d="M211 302h-124v125h124v-125z" />
    <glyph glyph-name="cedilla" unicode="&#xb8;" 
d="M411 612h-104v103h104v-103zM249 612h-104v103h104v-103zM426 302c0 23.333 -3.5 44.833 -10.5 64.5s-16.833 36.5 -29.5 50.5s-27.834 25 -45.501 33s-37.167 12 -58.5 12c-42 0 -76.667 -14.5 -104 -43.5s-42.666 -67.833 -45.999 -116.5h294zM130 234
c0.666992 -27.333 3.16602 -49.668 7.49902 -67.001s12.166 -33.666 23.499 -48.999c14.667 -20.667 32.834 -36.5 54.501 -47.5s45.167 -16.5 70.5 -16.5c34 0 63 8.83301 87 26.5s41.667 43.834 53 78.501h79c-10.667 -57.333 -35.5 -102 -74.5 -134
s-88.833 -48 -149.5 -48c-37.333 0 -70.666 6.33301 -99.999 19s-54.166 31 -74.499 55s-36 53.167 -47 87.5s-16.5 73.166 -16.5 116.499s5.66699 82.5 17 117.5s27.5 64.833 48.5 89.5s46.167 43.667 75.5 57s62.333 20 99 20c50.667 0 95.167 -12.833 133.5 -38.5
s65.166 -61.167 80.499 -106.5c6.66699 -18 11.5 -39.667 14.5 -65s4.5 -57 4.5 -95h-386z" />
    <glyph glyph-name="onesuperior" unicode="&#xb9;" horiz-adv-x="1276" 
d="M739 83h487v-83h-487v83zM979 658c-24 0 -45.999 -4.83105 -65.999 -14.498s-37.167 -23 -51.5 -40s-25.5 -37.333 -33.5 -61s-12 -49.834 -12 -78.501s4.16699 -54.834 12.5 -78.501s19.833 -44 34.5 -61s32.334 -30.333 53.001 -40s43 -14.5 67 -14.5
s46.167 4.66699 66.5 14s37.666 22.5 51.999 39.5s25.666 37.167 33.999 60.5s12.5 49 12.5 77c0 60 -16 108 -48 144c-16 18.667 -33.5 32.167 -52.5 40.5s-41.833 12.5 -68.5 12.5zM986.001 741.002c35.333 0 68.3301 -6.99609 98.9971 -20.9961s57.167 -33.333 79.5 -58
s40 -53.834 53 -87.501s19.5 -69.834 19.5 -108.501c0 -40.667 -6.16699 -78.167 -18.5 -112.5s-29.833 -63.833 -52.5 -88.5s-49.5 -43.834 -80.5 -57.501s-65.167 -20.5 -102.5 -20.5s-71.666 6.66699 -102.999 20s-58.333 32.166 -81 56.499
s-40.334 53.166 -53.001 86.499s-19 70 -19 110c0 42 6.33301 80.167 19 114.5s30.334 63.833 53.001 88.5s49.834 43.834 81.501 57.501s66.834 20.5 105.501 20.5zM649.998 0.00585938h-105l-377 591v-591h-88v729h101l381 -596v596h88v-729z" />
    <glyph glyph-name="ordmasculine" unicode="&#xba;" horiz-adv-x="547" 
d="M416 350c-10 36 -27.334 63.666 -52.001 82.999s-54 29 -88 29c-40.667 0 -73.667 -13.5 -99 -40.5s-40.666 -64.833 -45.999 -113.5h184v-74h-187c2 -54.667 16.667 -98.334 44 -131.001s63 -49 107 -49c38 0 69 12.167 93 36.5s40.667 59.833 50 106.5l86 -22
c-29.333 -132 -106 -198 -230 -198c-36.667 0 -69.667 6.5 -99 19.5s-54.166 31.667 -74.499 56s-36 54 -47 89s-16.5 74.167 -16.5 117.5c0 42.667 5.5 81.334 16.5 116.001s26.833 64.167 47.5 88.5s45.667 43 75 56s62.333 19.5 99 19.5
c56.667 0 104.167 -14.667 142.5 -44s65.166 -71.666 80.499 -126.999z" />
    <glyph glyph-name="guillemotright" unicode="&#xbb;" 
d="M451 228l-154 -122v83l108 83l-108 83v83l154 -121v-89zM252 228l-154 -122v83l108 83l-108 83v83l154 -121v-89z" />
    <glyph glyph-name="onequarter" unicode="&#xbc;" horiz-adv-x="225" 
d="M154 624h-84v105h84v-105zM154 524l0.000976562 -632.999c0 -23.333 -6 -43.333 -18 -60s-28.667 -29.334 -50 -38.001c-10.667 -4 -22.334 -6.83301 -35.001 -8.5s-30 -2.5 -52 -2.5h-17v78c4 -0.666992 7.66699 -1 11 -1h9c26 0 43.833 5 53.5 15s14.5 28 14.5 54v596
h84z" />
    <glyph glyph-name="onehalf" unicode="&#xbd;" horiz-adv-x="667" 
d="M508 515c-0.666992 48 -16.5029 84.6641 -47.5029 109.997s-75.833 38 -134.5 38c-49.333 0 -88.833 -11.167 -118.5 -33.5s-44.5 -52.166 -44.5 -89.499c0 -28 9 -50 27 -66s49 -30 93 -42l183 -49c50 -13.333 88.333 -35.666 115 -66.999s40 -70 40 -116
c0 -32 -7.16699 -63 -21.5 -93s-33.833 -54.667 -58.5 -74c-23.333 -18 -52.333 -31.833 -87 -41.5s-73.667 -14.5 -117 -14.5c-117.333 0 -201 36.667 -251 110c-12.667 19.333 -22 40.333 -28 63s-9.33301 50 -10 82h88c-0.666992 -45.333 13 -83.666 41 -114.999
c18 -20 40.333 -34.667 67 -44s59.334 -14 98.001 -14c60.667 0 105.334 10.333 134.001 31c15.333 11.333 27.833 26.166 37.5 44.499s14.5 37.166 14.5 56.499c0 28.667 -10.667 52.5 -32 71.5s-55.333 34.5 -102 46.5l-181 48c-95.333 24.667 -143 81.334 -143 170.001
c0 32.667 6 62.334 18 89.001s29.167 49.167 51.5 67.5s49.5 32.5 81.5 42.5s68 15 108 15c77.333 0 139.333 -17.333 186 -52c24.667 -18 44.334 -41.5 59.001 -70.5s22 -59.5 22 -91.5v-12h-88z" />
    <glyph glyph-name="threequarters" unicode="&#xbe;" horiz-adv-x="500" 
d="M350 378c-2 56 -37.0049 84.0029 -105.005 84.0029c-34 0 -61 -7 -81 -21s-30 -33.333 -30 -58c0 -18.667 7.66699 -33.834 23 -45.501s40 -21.5 74 -29.5l80 -19c52 -12.667 89.667 -30.334 113 -53.001s35 -53.667 35 -93c0 -25.333 -5 -48.166 -15 -68.499
s-24.5 -37.833 -43.5 -52.5s-41.833 -25.834 -68.5 -33.501s-56.334 -11.5 -89.001 -11.5c-135.333 0 -205 59.667 -209 179h88c2.66699 -19.333 5.83398 -33.833 9.50098 -43.5s9.16699 -18.167 16.5 -25.5c10.667 -10.667 25 -18.834 43 -24.501s37.667 -8.5 59 -8.5
c36.667 0 66.167 7.5 88.5 22.5s33.5 35.167 33.5 60.5c0 18.667 -6.16699 33.5 -18.5 44.5s-33.166 20.167 -62.499 27.5l-78 19c-31.333 7.33301 -57.5 15.5 -78.5 24.5s-38 19.5 -51 31.5s-22.333 25.667 -28 41s-8.5 33.333 -8.5 54c0 24 4.66699 45.833 14 65.5
s22.833 36.5 40.5 50.5s38.834 24.833 63.501 32.5s52.334 11.5 83.001 11.5c60.667 0 107.334 -13.833 140.001 -41.5s49.334 -67.5 50.001 -119.5h-88z" />
    <glyph glyph-name="questiondown" unicode="&#xbf;" horiz-adv-x="225" 
d="M246 612h-104v103h104v-103zM84 612h-104v103h104v-103zM158 0h-84v524h84v-524z" />
    <glyph glyph-name="Agrave" unicode="&#xc0;" horiz-adv-x="667" 
d="M335 629l-120 -332h232zM192 219l-77 -219h-99l260 729h120l256 -729h-104l-75 219h-281z" />
    <glyph glyph-name="Aacute" unicode="&#xc1;" horiz-adv-x="664" 
d="M174 82h210c46 0 81.833 11.333 107.5 34s38.5 54 38.5 94c0 40.667 -12.833 72.167 -38.5 94.5s-61.5 33.5 -107.5 33.5h-210v-256zM393 420c37.333 0 68.332 -3.50098 92.999 -10.501s47.334 -18.833 68.001 -35.5c46.667 -37.333 70 -91.666 70 -162.999
c0 -67.333 -19.5 -119.333 -58.5 -156s-94.5 -55 -166.5 -55h-319v729h478v-82h-384v-227h219z" />
    <glyph glyph-name="Acircumflex" unicode="&#xc2;" horiz-adv-x="666" 
d="M400 82c41.333 0 73.5 11 96.5 33s34.5 52.667 34.5 92c0 40 -11.5 70.833 -34.5 92.5s-55.167 32.5 -96.5 32.5h-226v-250h226zM353 414c97.333 0 146 39 146 117c0 77.333 -48.667 116 -146 116h-179v-233h179zM80 729h295.999c66.667 0 119.334 -16.5 158.001 -49.5
s58 -78.167 58 -135.5c0 -74.667 -33.667 -127.667 -101 -159c46.667 -18 80.5 -41 101.5 -69s31.5 -64 31.5 -108c0 -58.667 -18.667 -107.667 -56 -147c-38 -40.667 -91 -61 -159 -61h-329v729z" />
    <glyph glyph-name="Atilde" unicode="&#xc3;" horiz-adv-x="538" 
d="M534 729v-82h-360v-647h-94v729h454z" />
    <glyph glyph-name="Adieresis" unicode="&#xc4;" horiz-adv-x="756" 
d="M568 647h-274v-276c0 -142 -38 -238.333 -114 -289h388v565zM117 0l0.00195312 -166h-94v248c28 2.66699 52.167 10.334 72.5 23.001s39.166 31 56.499 55c17.333 24.667 29.666 53.167 36.999 85.5s11 73.166 11 122.499v361h462v-647h56v-248h-94v166h-507z" />
    <glyph glyph-name="Aring" unicode="&#xc5;" horiz-adv-x="657" 
d="M174 82h429v-82h-523v729h505v-82h-411v-233h396v-82h-396v-250z" />
    <glyph glyph-name="AE" unicode="&#xc6;" horiz-adv-x="979" 
d="M441 345h-111l-223 -345h-106l251 384l-206 345h104l180 -302h111v302h94v-302h111l180 302h104l-205 -345l252 -384h-103l-225 345h-114v-345h-94v345z" />
    <glyph glyph-name="Ccedilla" unicode="&#xc7;" horiz-adv-x="565" 
d="M131 224l-0.00195312 -16.999c0 -45.333 13.833 -81.333 41.5 -108s65.167 -40 112.5 -40c46 0 81.833 12.167 107.5 36.5s38.5 58.5 38.5 102.5c0 90.667 -51.333 136 -154 136h-40v81h33c42 0 75.667 11.167 101 33.5s38 52.166 38 89.499
c0 36 -11.333 65.167 -34 87.5s-53 33.5 -91 33.5c-38.667 0 -70 -11.333 -94 -34s-36 -52.667 -36 -90v-34h-94v17c0 33.333 5.33301 63.666 16 90.999s25.667 50.833 45 70.5s42.833 34.834 70.5 45.501s58.167 16 91.5 16c32 0 61.333 -5 88 -15
s49.834 -23.667 69.501 -41s35 -38 46 -62s16.5 -50.333 16.5 -79c0 -22.667 -3.83301 -44.834 -11.5 -66.501s-18.167 -40.5 -31.5 -56.5c-8.66699 -10 -17.834 -18.167 -27.501 -24.5s-23.167 -12.166 -40.5 -17.499c42 -8 74.667 -27.167 98 -57.5s35 -68.833 35 -115.5
c0 -30 -5.5 -59.5 -16.5 -88.5s-26.167 -53.833 -45.5 -74.5c-40.667 -44 -99.667 -66 -177 -66c-50 0 -93.667 9.66699 -131 29s-66.666 48 -87.999 86c-5.33301 10 -9.83301 19.5 -13.5 28.5s-6.66699 18.667 -9 29s-4.16602 21.5 -5.49902 33.5s-2 25.667 -2 41h94z" />
    <glyph glyph-name="Egrave" unicode="&#xc8;" horiz-adv-x="725" 
d="M80 729h94v-510l377 428v82h94v-729h-94v513l-377 -430v-83h-94v729z" />
    <glyph glyph-name="Eacute" unicode="&#xc9;" horiz-adv-x="726" 
d="M271 931c4.66699 -44 35.665 -65.998 92.998 -65.998c26.667 0 47.834 5.66699 63.501 17s24.5 27.666 26.5 48.999h59c-7.33301 -90 -58 -135 -152 -135c-29.333 0 -55 5.16699 -77 15.5s-39.667 25.166 -53 44.499c-6.66699 9.33301 -11.167 19.5 -13.5 30.5
s-4.16602 25.833 -5.49902 44.5h59zM80.998 729.002h94v-510l376 428v82h94v-729h-94v513l-376 -430v-83h-94v729z" />
    <glyph glyph-name="Ecircumflex" unicode="&#xca;" horiz-adv-x="618" 
d="M80 729h94v-302h111l180 302h104l-205 -345l252 -384h-104l-225 345h-113v-345h-94v729z" />
    <glyph glyph-name="Edieresis" unicode="&#xcb;" horiz-adv-x="722" 
d="M548 647h-299v-369c0 -82.667 -18.333 -149.334 -55 -200.001c-20.667 -28 -42 -48 -64 -60s-49 -18 -81 -18h-16v82c81.333 6.66699 122 71.334 122 194.001v453h487v-729h-94v647z" />
    <glyph glyph-name="Igrave" unicode="&#xcc;" horiz-adv-x="847" 
d="M375 0l-207 611v-611h-88v729h129l216 -635l212 635h129v-729h-88v611l-205 -611h-98z" />
    <glyph glyph-name="Iacute" unicode="&#xcd;" horiz-adv-x="722" 
d="M175 332v-332h-94v729h93v-315h374v315h94v-729h-94v332h-373z" />
    <glyph glyph-name="Icircumflex" unicode="&#xce;" horiz-adv-x="778" 
d="M386 659c-38 0 -72.668 -7.33301 -104.001 -22s-58.333 -35.167 -81 -61.5s-40.167 -57.833 -52.5 -94.5s-18.5 -77.334 -18.5 -122.001c0 -45.333 6.16699 -86.333 18.5 -123s29.833 -68.167 52.5 -94.5s49.834 -46.666 81.501 -60.999s67.167 -21.5 106.5 -21.5
c38.667 0 74 7.16699 106 21.5s59.333 34.666 82 60.999s40.167 57.833 52.5 94.5s18.5 77.334 18.5 122.001c0 46 -6.16699 87.5 -18.5 124.5s-30 68.5 -53 94.5s-50.5 46.167 -82.5 60.5s-68 21.5 -108 21.5zM392.999 741c51.333 0 98.332 -9.32812 140.999 -27.9951
s79.334 -44.834 110.001 -78.501s54.5 -73.834 71.5 -120.501s25.5 -98.334 25.5 -155.001c0 -57.333 -8.5 -109.333 -25.5 -156s-41 -86.834 -72 -120.501s-68 -59.667 -111 -78s-90.833 -27.5 -143.5 -27.5s-100.5 9.16699 -143.5 27.5s-80 44.166 -111 77.499
s-55 73.333 -72 120s-25.5 98.667 -25.5 156c0 58 8.5 110.5 25.5 157.5s41 87.333 72 121s68.333 59.5 112 77.5s92.5 27 146.5 27z" />
    <glyph glyph-name="Idieresis" unicode="&#xcf;" horiz-adv-x="722" 
d="M175 0h-94v729h561v-729h-94v647h-373v-647z" />
    <glyph glyph-name="Eth" unicode="&#xd0;" horiz-adv-x="644" 
d="M367 391c44.667 0 79.5 11.333 104.5 34s37.5 54 37.5 94s-12.5 71.333 -37.5 94s-59.833 34 -104.5 34h-193v-256h193zM174 0h-94.001v729h301c72.667 0 128.334 -18.5 167.001 -55.5s58 -89.833 58 -158.5c0 -34 -5 -63.167 -15 -87.5s-26 -46.5 -48 -66.5
c-38.667 -34.667 -85.667 -52 -141 -52h-228v-309z" />
    <glyph glyph-name="Ntilde" unicode="&#xd1;" horiz-adv-x="711" 
d="M677 257c0 -14 -0.501953 -26.3301 -1.50195 -36.9971s-2.83301 -21 -5.5 -31s-6.16699 -19.833 -10.5 -29.5s-9.5 -20.167 -15.5 -31.5c-28 -49.333 -65.333 -86.833 -112 -112.5s-101 -38.5 -163 -38.5c-85.333 0 -156 25 -212 75c-38 34 -67.5 77.5 -88.5 130.5
s-31.5 111.5 -31.5 175.5c0 58 8.16699 110.5 24.5 157.5s39.333 87.167 69 120.5s65.5 59.166 107.5 77.499s88.667 27.5 140 27.5c41.333 0 79.333 -6 114 -18s64.834 -28.833 90.501 -50.5s45.834 -47.5 60.501 -77.5s22.334 -63 23.001 -99h-99
c-0.666992 50.667 -17.667 90.5 -51 119.5s-79 43.5 -137 43.5c-78.667 0 -139.667 -26.333 -183 -79s-65 -126.667 -65 -222c0 -46 5.66699 -87.5 17 -124.5s27.666 -68.5 48.999 -94.5s47 -45.833 77 -59.5s64 -20.5 102 -20.5c30 0 57.167 4.66699 81.5 14
s45.333 22.666 63 39.999s31.5 38.166 41.5 62.499s15.333 51.5 16 81.5h99z" />
    <glyph glyph-name="Ograve" unicode="&#xd2;" horiz-adv-x="611" 
d="M353 0h-94v647h-239v82h572v-82h-239v-647z" />
    <glyph glyph-name="Oacute" unicode="&#xd3;" horiz-adv-x="609" 
d="M129 82h56.001c12 0 21.833 0.833008 29.5 2.5s14.667 5.16699 21 10.5s12.166 12.833 17.499 22.5s11.333 22.5 18 38.5l-265 573h112l199 -462l188 462h110l-277 -637c-13.333 -30 -30.333 -52.833 -51 -68.5s-44 -23.5 -70 -23.5h-88v82z" />
    <glyph glyph-name="Ocircumflex" unicode="&#xd4;" horiz-adv-x="778" 
d="M436 162c24 2 43.833 5.16992 59.5 9.50293s32.167 11.166 49.5 20.499c36 19.333 62 42.833 78 70.5s24 61.5 24 101.5c0 80 -33.333 138 -100 174c-17.333 9.33301 -33.833 16.166 -49.5 20.499s-36.167 7.16602 -61.5 8.49902v-405zM342 567.003
c-25.333 -1.33301 -45.833 -4.16895 -61.5 -8.50195s-32.167 -11.166 -49.5 -20.499c-66.667 -36 -100 -94 -100 -174c0 -40 8 -73.833 24 -101.5s41.667 -51.167 77 -70.5c17.333 -9.33301 34 -16.166 50 -20.499s36 -7.5 60 -9.5v405zM342 81
c-46.667 2.66699 -88.834 11.3262 -126.501 25.9932s-69.667 34.334 -96 59.001s-46.666 53.834 -60.999 87.501s-21.5 70.834 -21.5 111.501s7.16699 77.834 21.5 111.501s34.666 62.667 60.999 87s58.333 43.833 96 58.5s79.834 23.334 126.501 26.001v91h94v-91
c97.333 -5.33301 172.5 -32.5 225.5 -81.5s79.5 -116.167 79.5 -201.5s-26.667 -152.666 -80 -201.999s-128.333 -76.666 -225 -81.999v-91h-94v91z" />
    <glyph glyph-name="Otilde" unicode="&#xd5;" horiz-adv-x="667" 
d="M647 0h-115l-199 304l-200 -304h-113l258 374l-242 355h113l187 -286l188 286h111l-246 -355z" />
    <glyph glyph-name="Odieresis" unicode="&#xd6;" horiz-adv-x="735" 
d="M80 729h94v-647h374v647h94v-647h55v-248h-94v166h-523v729z" />
    <glyph glyph-name="multiply" unicode="&#xd7;" horiz-adv-x="695" 
d="M521 277c-35.333 -9.33301 -70.168 -16.333 -104.501 -21s-68.166 -7 -101.499 -7c-80.667 0 -143.167 16.167 -187.5 48.5s-66.5 77.833 -66.5 136.5v295h94v-290c0 -72 60.667 -108 182 -108c30 0 58.833 2.16699 86.5 6.5s60.167 11.5 97.5 21.5v370h94v-729h-94v277z
" />
    <glyph glyph-name="Oslash" unicode="&#xd8;" horiz-adv-x="1102" 
d="M81 729h94v-647h330v647h94v-647h329v647h94v-729h-941v729z" />
    <glyph glyph-name="Ugrave" unicode="&#xd9;" horiz-adv-x="1115" 
d="M80 729h94v-647h330v647h94v-647h329v647h94v-647h56v-248h-94v166h-903v729z" />
    <glyph glyph-name="Uacute" unicode="&#xda;" horiz-adv-x="859" 
d="M372 82h210c46 0 81.833 11.333 107.5 34s38.5 54 38.5 94c0 40.667 -12.833 72.167 -38.5 94.5s-61.5 33.5 -107.5 33.5h-210v-256zM372 420l219 0.000976562c37.333 0 68.333 -3.5 93 -10.5s47 -18.833 67 -35.5c47.333 -37.333 71 -92 71 -164
c0 -66.667 -19.5 -118.334 -58.5 -155.001s-94.5 -55 -166.5 -55h-319v647h-274v82h368v-309z" />
    <glyph glyph-name="Ucircumflex" unicode="&#xdb;" horiz-adv-x="876" 
d="M701 729h94v-729h-94v729zM174 82h210c46 0 81.833 11.333 107.5 34s38.5 54 38.5 94c0 40.667 -12.833 72.167 -38.5 94.5s-61.5 33.5 -107.5 33.5h-210v-256zM393 420c37.333 0 68.333 -3.50098 93 -10.501s47 -18.833 67 -35.5c47.333 -37.333 71 -91.666 71 -162.999
c0 -67.333 -19.5 -119.333 -58.5 -156s-94.5 -55 -166.5 -55h-319v729h94v-309h219z" />
    <glyph glyph-name="Udieresis" unicode="&#xdc;" horiz-adv-x="662" 
d="M174 82h210c46 0 81.833 11.333 107.5 34s38.5 54 38.5 94c0 40.667 -12.833 72.167 -38.5 94.5s-61.5 33.5 -107.5 33.5h-210v-256zM393 420c37.333 0 68.333 -3.50098 93 -10.501s47 -18.833 67 -35.5c47.333 -37.333 71 -91.666 71 -162.999
c0 -67.333 -19.5 -119.333 -58.5 -156s-94.5 -55 -166.5 -55h-319v729h94v-309h219z" />
    <glyph glyph-name="Yacute" unicode="&#xdd;" horiz-adv-x="764" 
d="M318 323l0.00195312 82.9951h313c-4.66699 33.333 -11 61.833 -19 85.5s-19.333 45.834 -34 66.501c-22 32 -50.833 56.833 -86.5 74.5s-74.5 26.5 -116.5 26.5c-54.667 0 -101.834 -13.333 -141.501 -40s-70.167 -66 -91.5 -118l-92 18
c59.333 148 167.666 222 324.999 222c52.667 0 100.667 -9.16699 144 -27.5s80.333 -44.166 111 -77.499s54.5 -73.5 71.5 -120.5s25.5 -99.167 25.5 -156.5s-8.5 -109.5 -25.5 -156.5s-40.833 -87.167 -71.5 -120.5s-67.667 -59.166 -111 -77.499s-91.333 -27.5 -144 -27.5
c-50.667 0 -97 8.5 -139 25.5s-79 41.833 -111 74.5c-10.667 11.333 -20.167 22.5 -28.5 33.5s-15.833 22.833 -22.5 35.5s-13 26.667 -19 42s-12 33 -18 53l92 16c9.33301 -30.667 18.833 -55.167 28.5 -73.5s22.5 -35.833 38.5 -52.5
c22.667 -23.333 49.5 -41.166 80.5 -53.499s63.833 -18.5 98.5 -18.5c72.667 0 131.667 23.333 177 70s72 111.334 80 194.001h-314z" />
    <glyph glyph-name="Thorn" unicode="&#xde;" horiz-adv-x="1069" 
d="M678 659c-38 0 -72.668 -7.33301 -104.001 -22s-58.333 -35.167 -81 -61.5s-40.167 -57.833 -52.5 -94.5s-18.5 -77.334 -18.5 -122.001c0 -45.333 6.16699 -86.333 18.5 -123s29.833 -68.167 52.5 -94.5s49.834 -46.666 81.501 -60.999s67.167 -21.5 106.5 -21.5
c38.667 0 74 7.16699 106 21.5s59.333 34.666 82 60.999s40.167 57.833 52.5 94.5s18.5 77.334 18.5 122.001c0 46 -6.16699 87.5 -18.5 124.5s-30 68.5 -53 94.5s-50.5 46.167 -82.5 60.5s-68 21.5 -108 21.5zM331.999 414c6 50.667 18.5 96.3311 37.5 136.998
s43.5 75 73.5 103s65.167 49.5 105.5 64.5s84.5 22.5 132.5 22.5c52.667 0 100.667 -9.16699 144 -27.5s80.333 -44.166 111 -77.499s54.5 -73.5 71.5 -120.5s25.5 -99.167 25.5 -156.5s-8.5 -109.5 -25.5 -156.5s-40.833 -87.167 -71.5 -120.5
s-67.667 -59.166 -111 -77.499s-91.333 -27.5 -144 -27.5c-50.667 0 -96.667 8.16699 -138 24.5s-77.333 39.833 -108 70.5s-55 68 -73 112s-29 93.333 -33 148h-154v-332h-94v729h94v-315h157z" />
    <glyph glyph-name="germandbls" unicode="&#xdf;" horiz-adv-x="706" 
d="M532 647h-224c-50 0 -86.333 -10 -109 -30s-34 -51.667 -34 -95c0 -44 11.333 -76 34 -96s59 -30 109 -30h224v251zM293 314c-42 0 -72.5 -10.334 -91.5 -31.001s-28.5 -53.667 -28.5 -99v-13c0 -5.33301 0.333008 -11.666 1 -18.999v-31c0 -27.333 -1.5 -50 -4.5 -68
s-8.5 -35.667 -16.5 -53h-108c8 8 14.5 16 19.5 24s9 17.833 12 29.5s5 26.667 6 45s1.83301 42.166 2.5 71.499c0 30 1.33301 55.167 4 75.5s7.66699 37.5 15 51.5s17.333 25.833 30 35.5s29 18.834 49 27.501c-40 20 -68.667 43.333 -86 70s-26 61 -26 103
c0 64 19 112.667 57 146s93 50 165 50h333v-729h-94v314h-239z" />
    <glyph glyph-name="agrave" unicode="&#xe0;" 
d="M388 258c-6.66699 -3.33301 -13.167 -6 -19.5 -8s-14.333 -4 -24 -6s-21.5 -4.16699 -35.5 -6.5s-32.333 -5.16602 -55 -8.49902c-44.667 -6.66699 -76.667 -17.167 -96 -31.5s-29 -35.5 -29 -63.5c0 -26.667 9 -47.334 27 -62.001s43.333 -22 76 -22
c48 0 89.333 15.667 124 47c12 11.333 20.333 22 25 32s7 21.667 7 35v94zM535 -14c-14 -3.33301 -24.9961 -5.66895 -32.9961 -7.00195s-16.667 -2 -26 -2c-28 0 -48.833 6 -62.5 18s-22.167 30.667 -25.5 56c-30 -26 -58.5 -44.833 -85.5 -56.5s-57.167 -17.5 -90.5 -17.5
c-52.667 0 -94.167 14 -124.5 42s-45.5 66.667 -45.5 116c0 70.667 32.333 118.334 97 143.001c7.33301 2.66699 14.666 5.16699 21.999 7.5s16.666 4.5 27.999 6.5s25.833 4.16699 43.5 6.5l69.5 9.5c32.667 4.66699 55.167 11.167 67.5 19.5s18.5 21.5 18.5 39.5v16
c0 25.333 -10 44.833 -30 58.5s-49 20.5 -87 20.5c-38.667 0 -67.834 -7.66699 -87.501 -23s-31.167 -39.333 -34.5 -72h-84c1.33301 28 4.83301 50.5 10.5 67.5s15.167 32.167 28.5 45.5c18 19.333 41.667 34 71 44s62.333 15 99 15
c65.333 0 114.666 -12.167 147.999 -36.5s50 -60.166 50 -107.499v-307c0 -27.333 14.333 -41 43 -41c6 0 12.667 1.33301 20 4v-65z" />
    <glyph glyph-name="aacute" unicode="&#xe1;" 
d="M276 462c-46 0 -82.1689 -18.168 -108.502 -54.501s-39.5 -86.166 -39.5 -149.499c0 -64 13.333 -114 40 -150s63.334 -54 110.001 -54s83.334 18 110.001 54s40 85.667 40 149c0 64.667 -13.333 115 -40 151s-64 54 -112 54zM426.998 783.999
c0 -34 -2.66797 -62.333 -8.00098 -85s-14.5 -41.167 -27.5 -55.5s-30.5 -25.5 -52.5 -33.5s-49.667 -14 -83 -18c-68 -13.333 -107 -51.333 -117 -114c42 40.667 91.667 61 149 61c32 0 63 -7 93 -21s55 -33.333 75 -58c39.333 -49.333 59 -116.666 59 -201.999
c0 -88.667 -20.833 -157.667 -62.5 -207s-99.834 -74 -174.501 -74c-76.667 0 -135.667 26.333 -177 79c-21.333 26.667 -36.666 57 -45.999 91s-14 77.667 -14 131c0 126 17.333 221.333 52 286c15.333 28 34.333 50.167 57 66.5s52 28.166 88 35.499l30.5 7
c8.33301 2 15.333 4 21 6s10.334 4 14.001 6s7.5 4.33301 11.5 7c17.333 12 26 29.333 26 52v40h86z" />
    <glyph glyph-name="acircumflex" unicode="&#xe2;" horiz-adv-x="557" 
d="M341 314c19.333 0 35.333 6.33301 48 19s19 29 19 49c0 21.333 -5.83301 38 -17.5 50s-28.167 18 -49.5 18h-186v-136h186zM341 74c28 0 49.833 7.5 65.5 22.5s23.5 35.167 23.5 60.5s-8 45.5 -24 60.5s-37.667 22.5 -65 22.5h-186v-166h186zM71 524h269.999
c22 0 42.5 -3.33301 61.5 -10s35.333 -16 49 -28s24.334 -26.167 32.001 -42.5s11.5 -34.166 11.5 -53.499c0 -42.667 -20 -79 -60 -109c30 -16 51.167 -33.833 63.5 -53.5s18.5 -44.834 18.5 -75.501c0 -46.667 -13.667 -83.667 -41 -111s-64 -41 -110 -41h-295v524z" />
    <glyph glyph-name="atilde" unicode="&#xe3;" horiz-adv-x="389" 
d="M71 524h317v-74h-233v-450h-84v524z" />
    <glyph glyph-name="adieresis" unicode="&#xe4;" horiz-adv-x="584" 
d="M419 450l-168 -0.000976562v-35c0 -35.333 -2.83301 -71.833 -8.5 -109.5s-13.167 -70.5 -22.5 -98.5c-10 -30.667 -21 -56.167 -33 -76.5s-27 -39.166 -45 -56.499h277v376zM16 73.999c27.333 10 50.167 26.167 68.5 48.5s34.833 53.5 49.5 93.5
c12 32.667 20.833 69.5 26.5 110.5s8.5 88.5 8.5 142.5v55h334v-450h43v-171h-87v97h-356v-97h-87v171z" />
    <glyph glyph-name="aring" unicode="&#xe5;" horiz-adv-x="555" 
d="M424 302c0 23.333 -3.5 44.833 -10.5 64.5s-16.833 36.5 -29.5 50.5s-27.834 25 -45.501 33s-37.167 12 -58.5 12c-42 0 -76.667 -14.5 -104 -43.5s-42.666 -67.833 -45.999 -116.5h294zM128 234c0.666992 -27.333 3.16602 -49.668 7.49902 -67.001
s12.166 -33.666 23.499 -48.999c14.667 -20.667 32.834 -36.5 54.501 -47.5s45.167 -16.5 70.5 -16.5c34 0 63 8.83301 87 26.5s41.667 43.834 53 78.501h79c-10.667 -57.333 -35.5 -102 -74.5 -134s-88.833 -48 -149.5 -48c-37.333 0 -70.666 6.33301 -99.999 19
s-54.166 31 -74.499 55s-36 53.167 -47 87.5s-16.5 73.166 -16.5 116.499s5.66699 82.5 17 117.5s27.5 64.833 48.5 89.5s46.167 43.667 75.5 57s62.333 20 99 20c50.667 0 95.167 -12.833 133.5 -38.5s65.166 -61.167 80.499 -106.5c6.66699 -18 11.5 -39.667 14.5 -65
s4.5 -57 4.5 -95h-386z" />
    <glyph glyph-name="ae" unicode="&#xe6;" horiz-adv-x="785" 
d="M351 249h-103l-148 -249h-98l167 286l-124 238h97l106 -201h103v201h84v-201h103l106 201h97l-124 -238l167 -286h-98l-148 249h-103v-249h-84v249z" />
    <glyph glyph-name="ccedilla" unicode="&#xe7;" horiz-adv-x="451" 
d="M126 164l0.000976562 -22.001c0 -58.667 32.333 -88 97 -88c31.333 0 55.833 7.66699 73.5 23s26.5 36.666 26.5 63.999c0 28 -9.33301 50.167 -28 66.5s-43.667 24.5 -75 24.5h-35v74h35c9.33301 0 19.666 1.83301 30.999 5.5s21.666 8.5 30.999 14.5
c20 12.667 30 31.334 30 56.001c0 23.333 -8 42.5 -24 57.5s-36.333 22.5 -61 22.5c-26 0 -47.5 -8.16699 -64.5 -24.5s-25.5 -37.166 -25.5 -62.499v-23h-87v23c0 17.333 4 36.166 12 56.499s17.667 37.166 29 50.499c16 18.667 35.833 32.834 59.5 42.501
s49.5 14.5 77.5 14.5c24 0 46.5 -3.83301 67.5 -11.5s39.167 -18.167 54.5 -31.5s27.333 -29.166 36 -47.499s13 -37.833 13 -58.5c0 -50 -25.333 -89 -76 -117c58 -26.667 87 -69.334 87 -128.001c0 -24.667 -4.66699 -47.167 -14 -67.5s-22.166 -38 -38.499 -53
s-36 -26.667 -59 -35s-48.167 -12.5 -75.5 -12.5c-56.667 0 -101.5 14.833 -134.5 44.5s-49.5 69.834 -49.5 120.501v22h87z" />
    <glyph glyph-name="egrave" unicode="&#xe8;" horiz-adv-x="539" 
d="M71 524h84v-351l230 307v44h84v-524h-84v358l-230 -310v-48h-84v524z" />
    <glyph glyph-name="eacute" unicode="&#xe9;" horiz-adv-x="539" 
d="M178 732c4.66699 -44 35.3359 -65.999 92.0029 -65.999c27.333 0 48.666 5.66699 63.999 17s24.333 27.666 27 48.999h59c-7.33301 -90 -58 -135 -152 -135c-29.333 0 -55 5.16699 -77 15.5s-39.667 25.166 -53 44.499c-6.66699 10 -11.334 20.333 -14.001 31
s-4.33398 25.334 -5.00098 44.001h59zM71.002 524.001h84v-351l230 307v44h84v-524h-84v358l-230 -310v-48h-84v524z" />
    <glyph glyph-name="ecircumflex" unicode="&#xea;" horiz-adv-x="505" 
d="M71 524h84v-201h103l106 201h97l-124 -238l167 -286h-98l-148 249h-103v-249h-84v524z" />
    <glyph glyph-name="edieresis" unicode="&#xeb;" horiz-adv-x="528" 
d="M373 450l-177.998 0.000976562v-233c0 -40.667 -5.33301 -75.334 -16 -104.001s-27 -53 -49 -73c-14 -13.333 -28.5 -22.833 -43.5 -28.5s-34.833 -9.5 -59.5 -11.5v74c13.333 4 24.166 8.66699 32.499 14s16.166 13.333 23.499 24c18.667 26 28 55.333 28 88v324h346
v-524h-84v450z" />
    <glyph glyph-name="igrave" unicode="&#xec;" horiz-adv-x="745" 
d="M71 524h127l174 -439l174 439h128v-524h-84v450l-174 -450h-86l-175 450v-450h-84v524z" />
    <glyph glyph-name="iacute" unicode="&#xed;" horiz-adv-x="550" 
d="M71 524h84v-211h241v211h84v-524h-84v239h-241v-239h-84v524z" />
    <glyph glyph-name="icircumflex" unicode="&#xee;" 
d="M276 462c-46 0 -82.1689 -18.168 -108.502 -54.501s-39.5 -86.166 -39.5 -149.499c0 -64 13.333 -114 40 -150s63.334 -54 110.001 -54s83.334 18 110.001 54s40 85.667 40 149c0 64.667 -13.333 115 -40 151s-64 54 -112 54zM281.998 538.999
c36 0 68.502 -6.50098 97.502 -19.501s53.5 -31.5 73.5 -55.5s35.333 -53.333 46 -88s16 -74 16 -118c0 -88.667 -20.833 -157.667 -62.5 -207s-99.834 -74 -174.501 -74s-132.834 24.5 -174.501 73.5s-62.5 117.833 -62.5 206.5c0 90.667 20.833 160.334 62.5 209.001
s101.167 73 178.5 73z" />
    <glyph glyph-name="idieresis" unicode="&#xef;" horiz-adv-x="542" 
d="M71 524h400v-524h-84v450h-232v-450h-84v524z" />
    <glyph glyph-name="eth" unicode="&#xf0;" horiz-adv-x="581" 
d="M299 461c-44 0 -79.001 -18.501 -105.001 -55.501s-39 -86.167 -39 -147.5c0 -30.667 3.5 -58.5 10.5 -83.5s16.833 -46.333 29.5 -64s28 -31.334 46 -41.001s38 -14.5 60 -14.5c22.667 0 43.334 4.83301 62.001 14.5s34.667 23.334 48 41.001s23.666 39 30.999 64
s11 52.5 11 82.5c0 30.667 -3.66699 58.667 -11 84s-17.666 46.833 -30.999 64.5s-29.5 31.334 -48.5 41.001s-40.167 14.5 -63.5 14.5zM70.999 523.999l82.0029 0.000976562v-74c38.667 59.333 93.667 89 165 89c34 0 64.833 -6.66699 92.5 -20s51 -32.333 70 -57
s33.667 -54.667 44 -90s15.5 -75 15.5 -119c0 -42 -5.33301 -80 -16 -114s-25.834 -63 -45.501 -87s-43.334 -42.5 -71.001 -55.5s-58.5 -19.5 -92.5 -19.5c-34.667 0 -64.834 6.16699 -90.501 18.5s-49.5 32.166 -71.5 59.499v-273h-82v742z" />
    <glyph glyph-name="ntilde" unicode="&#xf1;" horiz-adv-x="522" 
d="M400 348c-5.33301 36.667 -18.667 64.833 -40 84.5s-49.666 29.5 -84.999 29.5c-46 0 -82 -18.333 -108 -55s-39 -88 -39 -154c0 -62.667 12.833 -111.5 38.5 -146.5s61.167 -52.5 106.5 -52.5c71.333 0 113.666 42 126.999 126h83
c-5.33301 -64.667 -26.333 -114.667 -63 -150s-86.334 -53 -149.001 -53c-35.333 0 -67.166 6.5 -95.499 19.5s-52.5 31.333 -72.5 55s-35.333 52.5 -46 86.5s-16 72 -16 114c0 44 5.5 83.667 16.5 119s26.667 65.5 47 90.5s45 44.167 74 57.5s61.167 20 96.5 20
c38 0 72.333 -7.33301 103 -22s54.667 -34.667 72 -60c9.33301 -14 16.5 -29.5 21.5 -46.5s8.83301 -37.833 11.5 -62.5h-83z" />
    <glyph glyph-name="ograve" unicode="&#xf2;" horiz-adv-x="400" 
d="M158 450h-153v74h389v-74h-152v-450h-84v450z" />
    <glyph glyph-name="oacute" unicode="&#xf3;" horiz-adv-x="500" 
d="M480 524l-234.001 -634c-27.333 -72 -72.333 -108 -135 -108c-21.333 0 -39.666 3.66699 -54.999 11v77c15.333 -5.33301 30.333 -8 45 -8c17.333 0 30.833 4 40.5 12s18.167 21.667 25.5 41l32 85l-177 524h89l135 -408l144 408h90z" />
    <glyph glyph-name="ocircumflex" unicode="&#xf4;" horiz-adv-x="690" 
d="M387 53c57.333 5.33301 100.833 25.5 130.5 60.5s44.5 83.167 44.5 144.5c0 62 -14.833 110.5 -44.5 145.5s-73.167 55.167 -130.5 60.5v-411zM303 464c-56.667 -5.33301 -100 -25.5 -130 -60.5s-45 -83.5 -45 -145.5c0 -61.333 15 -109.5 45 -144.5
s73.333 -55.167 130 -60.5v411zM303 -22c-31.333 2 -57.1689 5.83301 -77.502 11.5s-40.5 14.5 -60.5 26.5c-39.333 23.333 -69.833 56 -91.5 98s-32.5 90 -32.5 144s10.833 102.167 32.5 144.5s52.167 75.166 91.5 98.499c10 6 19.833 11.167 29.5 15.5s20 8 31 11
s22.833 5.33301 35.5 7s26.667 3.16699 42 4.5v123h84v-123c30.667 -2.66699 56.334 -6.66699 77.001 -12s41 -14 61 -26c39.333 -23.333 69.833 -56.166 91.5 -98.499s32.5 -90.5 32.5 -144.5s-10.833 -102 -32.5 -144s-52.167 -74.667 -91.5 -98
c-20 -12 -40.167 -20.833 -60.5 -26.5s-46.166 -9.5 -77.499 -11.5v-196h-84v196z" />
    <glyph glyph-name="otilde" unicode="&#xf5;" horiz-adv-x="493" 
d="M471 0h-96l-128 201l-135 -201h-90l180 269l-180 255h101l124 -190l128 190h96l-178 -255z" />
    <glyph glyph-name="odieresis" unicode="&#xf6;" horiz-adv-x="540" 
d="M71 524h84v-450h219v450h84v-450h46v-171h-86v97h-347v524z" />
    <glyph glyph-name="divide" unicode="&#xf7;" horiz-adv-x="508" 
d="M353 200c-23.333 -10 -45.667 -17.333 -67 -22s-44 -7 -68 -7c-31.333 0 -58.833 4.5 -82.5 13.5s-43.167 22.167 -58.5 39.5c-9.33301 11.333 -16.166 23.833 -20.499 37.5s-6.5 30.167 -6.5 49.5v213h84v-194c0 -54.667 33 -82 99 -82c19.333 0 38.666 1.5 57.999 4.5
s40 8.16699 62 15.5v256h84v-524h-84v200z" />
    <glyph glyph-name="oslash" unicode="&#xf8;" horiz-adv-x="815" 
d="M71 524h85v-450h210v450h84v-450h210v450h84v-524h-673v524z" />
    <glyph glyph-name="ugrave" unicode="&#xf9;" horiz-adv-x="824" 
d="M71 524h85v-450h210v450h84v-450h210v450h84v-450h43v-171h-84v97h-632v524z" />
    <glyph glyph-name="uacute" unicode="&#xfa;" horiz-adv-x="659" 
d="M453 74c26.667 0 47.334 7.16797 62.001 21.501s22 34.5 22 60.5c0 27.333 -7.33301 48.166 -22 62.499s-35.334 21.5 -62.001 21.5h-164v-166h164zM205 450.001h-210.001v74h294v-210h166c52 0 93.167 -14.333 123.5 -43s45.5 -67.667 45.5 -117
c0 -47.333 -15.167 -84.833 -45.5 -112.5s-71.166 -41.5 -122.499 -41.5h-251v450z" />
    <glyph glyph-name="ucircumflex" unicode="&#xfb;" horiz-adv-x="699" 
d="M545 524h84v-524h-84v524zM319 74c26.667 0 47.334 7.16797 62.001 21.501s22 34.5 22 60.5c0 27.333 -7.33301 48.166 -22 62.499s-35.334 21.5 -62.001 21.5h-164v-166h164zM71 524.001h83.999v-210h166c52 0 93.167 -14.333 123.5 -43s45.5 -67.667 45.5 -117
c0 -47.333 -15.167 -84.833 -45.5 -112.5s-71.166 -41.5 -122.499 -41.5h-251v524z" />
    <glyph glyph-name="udieresis" unicode="&#xfc;" horiz-adv-x="525" 
d="M319 74c26.667 0 47.334 7.16797 62.001 21.501s22 34.5 22 60.5c0 27.333 -7.33301 48.166 -22 62.499s-35.334 21.5 -62.001 21.5h-164v-166h164zM71 524.001h83.999v-210h166c52 0 93.167 -14.333 123.5 -43s45.5 -67.667 45.5 -117
c0 -47.333 -15.167 -84.833 -45.5 -112.5s-71.166 -41.5 -122.499 -41.5h-251v524z" />
    <glyph glyph-name="yacute" unicode="&#xfd;" horiz-adv-x="547" 
d="M45 368c15.333 55.333 42.166 97.667 80.499 127s85.833 44 142.5 44c36.667 0 69.667 -6.5 99 -19.5s54.333 -31.667 75 -56s36.5 -53.833 47.5 -88.5s16.5 -73.334 16.5 -116.001c0 -43.333 -5.5 -82.5 -16.5 -117.5s-26.833 -64.667 -47.5 -89s-45.5 -43 -74.5 -56
s-61.833 -19.5 -98.5 -19.5c-124 0 -200.667 66 -230 198l86 22c9.33301 -46.667 26 -82.167 50 -106.5s55 -36.5 93 -36.5c44 0 79.667 16.333 107 49s42 76.334 44 131.001h-187v74h184c-5.33301 48.667 -20.666 86.5 -45.999 113.5s-58.333 40.5 -99 40.5
c-34 0 -63.333 -9.66699 -88 -29s-42 -47 -52 -83z" />
    <glyph glyph-name="thorn" unicode="&#xfe;" horiz-adv-x="790" 
d="M508 462c-46 0 -82.1689 -18.168 -108.502 -54.501s-39.5 -86.166 -39.5 -149.499c0 -64 13.333 -114 40 -150s63.334 -54 110.001 -54s83.334 18 110.001 54s40 85.667 40 149c0 64.667 -13.333 115 -40 151s-64 54 -112 54zM275.998 312.999
c9.33301 72.667 34 128.5 74 167.5s93.333 58.5 160 58.5c74.667 0 132.834 -24.667 174.501 -74s62.5 -118.333 62.5 -207s-20.833 -157.667 -62.5 -207s-99.834 -74 -174.501 -74c-72.667 0 -129.167 22.333 -169.5 67s-62.5 109.667 -66.5 195h-119v-239h-84v524h84v-211
h121z" />
    <glyph glyph-name="ydieresis" unicode="&#xff;" horiz-adv-x="529" 
d="M375 450h-166c-25.333 0 -45.5 -7.33301 -60.5 -22s-22.5 -34.667 -22.5 -60c0 -26 7.5 -46.5 22.5 -61.5s35.167 -22.5 60.5 -22.5h166v166zM375 210l-143.999 0.000976562c-20.667 0 -37.834 -7.5 -51.501 -22.5s-20.5 -34.167 -20.5 -57.5v-56
c0 -34 -6.66699 -58.667 -20 -74h-87c8 7.33301 13.333 16 16 26s4 26 4 48v56c0 45.333 23.333 78.333 70 99c-36.667 14.667 -63 32.667 -79 54s-24 49.666 -24 84.999c0 22.667 4.16699 43.5 12.5 62.5s20 35.5 35 49.5s32.833 24.833 53.5 32.5s43.667 11.5 69 11.5h250
v-524h-84v210z" />
    <glyph glyph-name="OE" unicode="&#x152;" horiz-adv-x="1130" 
d="M643 82h210c46 0 81.833 11.333 107.5 34s38.5 54 38.5 94c0 40.667 -12.833 72.167 -38.5 94.5s-61.5 33.5 -107.5 33.5h-210v-256zM175 338v-338.001h-94v729h93v-309h375v309h94v-309h219c37.333 0 68.333 -3.5 93 -10.5s47 -18.833 67 -35.5
c47.333 -37.333 71 -91.666 71 -162.999c0 -67.333 -19.5 -119.333 -58.5 -156s-94.5 -55 -166.5 -55h-319v338h-374z" />
    <glyph glyph-name="oe" unicode="&#x153;" horiz-adv-x="850" 
d="M644 74c26.667 0 47.332 7.33398 61.999 22.001s22 34.667 22 60c0 27.333 -7.16699 48.166 -21.5 62.499s-35.166 21.5 -62.499 21.5h-164v-166h164zM70.998 524.001h83.999v-211h241v211h84v-210h166c52 0 93.167 -14.333 123.5 -43s45.5 -67.667 45.5 -117
c0 -47.333 -15.167 -84.833 -45.5 -112.5s-71.166 -41.5 -122.499 -41.5h-251v239h-241v-239h-84v524z" />
    <glyph glyph-name="Scaron" unicode="&#x160;" horiz-adv-x="1129" 
d="M642 82h210c46 0 81.833 11.333 107.5 34s38.5 54 38.5 94c0 40.667 -12.833 72.167 -38.5 94.5s-61.5 33.5 -107.5 33.5h-210v-256zM249 647v-368.999c0 -82.667 -18.333 -149.334 -55 -200.001c-20.667 -28 -42 -48 -64 -60s-49 -18 -81 -18h-16v82
c81.333 6.66699 122 71.334 122 194.001v453h487v-309h219c37.333 0 68.333 -3.5 93 -10.5s47 -18.833 67 -35.5c24.667 -19.333 42.667 -42 54 -68s17 -58 17 -96c0 -66.667 -19.5 -118.334 -58.5 -155.001s-94.5 -55 -166.5 -55h-319v647h-299z" />
    <glyph glyph-name="scaron" unicode="&#x161;" horiz-adv-x="828" 
d="M621 74c26.667 0 47.334 7.16797 62.001 21.501s22 34.5 22 60.5c0 27.333 -7.33301 48.166 -22 62.499s-35.334 21.5 -62.001 21.5h-164v-166h164zM373 450.001l-178.001 0.00195312v-233c0 -40.667 -5.33301 -75.334 -16 -104.001s-27 -53 -49 -73
c-14 -13.333 -28.5 -22.833 -43.5 -28.5s-34.833 -9.5 -59.5 -11.5v74c26 7.33301 46.5 22.166 61.5 44.499s22.5 49.5 22.5 81.5v324h346v-210h166c52 0 93.167 -14.333 123.5 -43s45.5 -67.667 45.5 -117c0 -47.333 -15.167 -84.833 -45.5 -112.5
s-71.166 -41.5 -122.499 -41.5h-251v450z" />
    <glyph glyph-name="Ydieresis" unicode="&#x178;" horiz-adv-x="528" 
d="M71 524h84v-450h219v450h84v-524h-150v-97h-84v97h-153v524z" />
    <glyph glyph-name="Zcaron" unicode="&#x17d;" horiz-adv-x="672" 
d="M161 647l-157.999 0.000976562v82h421v-82h-169v-234c42 52 96.333 78 163 78c27.333 0 52.666 -4.33301 75.999 -13s43.5 -20.5 60.5 -35.5s30.333 -32.833 40 -53.5s14.5 -43.334 14.5 -68.001v-321h-94v317c0 28.667 -10 51.167 -30 67.5s-47.333 24.5 -82 24.5
c-21.333 0 -41 -3 -59 -9s-33.5 -14.333 -46.5 -25s-23.333 -23.167 -31 -37.5s-11.5 -29.833 -11.5 -46.5v-291h-94v647z" />
    <glyph glyph-name="zcaron" unicode="&#x17e;" horiz-adv-x="567" 
d="M82 585l-103 -0.00195312v74h103v70h84v-70h116v-74h-116v-150c28 34 55.833 58.667 83.5 74s58.167 23 91.5 23c23.333 0 44.666 -4.33301 63.999 -13s36 -20.667 50 -36s25 -33.666 33 -54.999s12 -44.666 12 -69.999v-358h-84v358c0 28 -8.66699 51.167 -26 69.5
s-39.666 27.5 -66.999 27.5c-28 0 -55.333 -9.33301 -82 -28s-51.667 -46 -75 -82v-345h-84v585z" />
    <glyph glyph-name="florin" unicode="&#x192;" horiz-adv-x="399" 
d="M365 740l-149 -148h-60l96 148h113zM80 524h317v-74h-233v-450h-84v524z" />
    <glyph glyph-name="Delta" unicode="&#x394;" horiz-adv-x="711" 
d="M143 82h423l-211 534zM304 729h100l297 -729h-691z" />
    <glyph glyph-name="Delta" unicode="&#x2206;" horiz-adv-x="711" 
d="M143 82h423l-211 534zM304 729h100l297 -729h-691z" />
    <glyph glyph-name="endash" unicode="&#x2013;" 
d="M561 240h-566v72h566v-72z" />
    <glyph glyph-name="emdash" unicode="&#x2014;" horiz-adv-x="1000" 
d="M1001 240h-1010v72h1010v-72z" />
    <glyph glyph-name="quoteleft" unicode="&#x2018;" horiz-adv-x="222" 
d="M65 477v101c0 40 8 71.167 24 93.5s39 34.833 69 37.5v-38c-32.667 -4.66699 -48.667 -34.667 -48 -90h48v-104h-93z" />
    <glyph glyph-name="quoteright" unicode="&#x2019;" horiz-adv-x="221" 
d="M157 729v-101c0 -40 -8 -71.167 -24 -93.5s-39 -34.833 -69 -37.5v38c17.333 2.66699 29.833 11 37.5 25s11.167 35.667 10.5 65h-48v104h93z" />
    <glyph glyph-name="quotesinglbase" unicode="&#x201a;" horiz-adv-x="222" 
d="M158 104v-101c0 -40 -8 -71.167 -24 -93.5s-39.333 -34.833 -70 -37.5v38c18 2.66699 31 11 39 25s11.333 35.667 10 65h-48v104h93z" />
    <glyph glyph-name="quotedblleft" unicode="&#x201c;" horiz-adv-x="333" 
d="M206 477v101c0 40 8 71.167 24 93.5s39 34.833 69 37.5v-38c-32.667 -4.66699 -48.667 -34.667 -48 -90h48v-104h-93zM48 477v101c0 40 8 71.167 24 93.5s39 34.833 69 37.5v-38c-32.667 -4.66699 -48.667 -34.667 -48 -90h48v-104h-93z" />
    <glyph glyph-name="quotedblright" unicode="&#x201d;" horiz-adv-x="333" 
d="M302 709v-101c0 -40 -8 -71.167 -24 -93.5s-39 -34.833 -69 -37.5v38c17.333 2.66699 29.833 11 37.5 25s11.167 35.667 10.5 65h-48v104h93zM142 709v-101c0 -40 -8 -71.167 -24 -93.5s-39 -34.833 -69 -37.5v38c17.333 2.66699 29.833 11 37.5 25
s11.167 35.667 10.5 65h-48v104h93z" />
    <glyph glyph-name="quotedblbase" unicode="&#x201e;" horiz-adv-x="333" 
d="M300 104v-101c0 -40 -8 -71.167 -24 -93.5s-39 -34.833 -69 -37.5v38c17.333 2.66699 29.833 11 37.5 25s11.167 35.667 10.5 65h-48v104h93zM140 104v-101c0 -40 -8 -71.167 -24 -93.5s-39 -34.833 -69 -37.5v38c17.333 2.66699 29.833 11 37.5 25
s11.167 35.667 10.5 65h-48v104h93z" />
    <glyph glyph-name="dagger" unicode="&#x2020;" 
d="M513 420h-194v-597h-88v597h-193v82h193v207h88v-207h194v-82z" />
    <glyph glyph-name="daggerdbl" unicode="&#x2021;" 
d="M513 420h-194v-307h194v-82h-194v-208h-88v208h-193v82h193v307h-193v82h193v207h88v-207h194v-82z" />
    <glyph glyph-name="bullet" unicode="&#x2022;" horiz-adv-x="350" 
d="M177 470c16.667 0 32.501 -3.33105 47.501 -9.99805s28 -15.667 39 -27s19.833 -24.666 26.5 -39.999s10 -31.333 10 -48c0 -17.333 -3.33301 -33.5 -10 -48.5s-15.667 -28.167 -27 -39.5s-24.5 -20.333 -39.5 -27s-31.167 -10 -48.5 -10s-33.5 3.33301 -48.5 10
s-28.167 15.667 -39.5 27s-20.333 24.5 -27 39.5s-10 31.167 -10 48.5s3.33301 33.666 10 48.999s15.667 28.666 27 39.999s24.666 20.166 39.999 26.499s32 9.5 50 9.5z" />
    <glyph glyph-name="ellipsis" unicode="&#x2026;" horiz-adv-x="1000" 
d="M885 0h-104v104h104v-104zM552 0h-104v104h104v-104zM219 0h-104v104h104v-104z" />
    <glyph glyph-name="perthousand" unicode="&#x2030;" horiz-adv-x="1000" 
d="M842 219c-24.667 0 -45.668 -8.83301 -63.001 -26.5s-26 -38.834 -26 -63.501c0 -25.333 8.83301 -46.833 26.5 -64.5s39.167 -26.5 64.5 -26.5c24.667 0 45.834 8.83301 63.501 26.5s26.5 38.834 26.5 63.501c0 25.333 -8.83301 46.833 -26.5 64.5
s-39.5 26.5 -65.5 26.5zM844.999 279c20 0 39 -4.00195 57 -12.002s33.833 -18.833 47.5 -32.5s24.334 -29.5 32.001 -47.5s11.5 -37.333 11.5 -58c0 -21.333 -4 -41.166 -12 -59.499s-18.667 -34.166 -32 -47.499s-29 -24 -47 -32s-37.333 -12 -58 -12s-40.167 4 -58.5 12
s-34.166 18.833 -47.499 32.5s-24 29.5 -32 47.5s-12 37.333 -12 58c0 21.333 4 41.166 12 59.499s18.667 34.333 32 48s29.166 24.334 47.499 32.001s38.166 11.5 59.499 11.5zM481.999 218.998c-24.667 0 -45.668 -8.83301 -63.001 -26.5s-26 -38.834 -26 -63.501
c0 -25.333 8.83301 -46.833 26.5 -64.5s38.834 -26.5 63.501 -26.5c25.333 0 46.833 8.83301 64.5 26.5s26.5 38.834 26.5 63.501c0 25.333 -8.83301 46.833 -26.5 64.5s-39.5 26.5 -65.5 26.5zM484.998 278.998c20 0 39 -3.99902 57 -11.999s33.833 -18.833 47.5 -32.5
s24.334 -29.667 32.001 -48s11.5 -37.833 11.5 -58.5s-4 -40 -12 -58s-18.667 -33.833 -32 -47.5s-29 -24.5 -47 -32.5s-37.333 -12 -58 -12s-40.167 4 -58.5 12s-34.166 18.667 -47.499 32s-24 29.166 -32 47.499s-12 37.833 -12 58.5c0 21.333 4 41.166 12 59.499
s18.667 34.333 32 48s29.166 24.334 47.499 32.001s38.166 11.5 59.499 11.5zM557.998 737.999l-395 -758h-66l395 758h66zM156.998 667.999c-24.667 0 -45.666 -8.83105 -62.999 -26.498s-26 -38.834 -26 -63.501c0 -25.333 8.83301 -46.833 26.5 -64.5
s39.167 -26.5 64.5 -26.5s46.666 8.66699 63.999 26s26 38.666 26 63.999s-8.83301 46.833 -26.5 64.5s-39.5 26.5 -65.5 26.5zM159.999 728.001c20 0 39 -4.00098 57 -12.001s33.833 -18.833 47.5 -32.5s24.334 -29.5 32.001 -47.5s11.5 -37.333 11.5 -58
c0 -21.333 -4 -41.166 -12 -59.499s-18.667 -34.166 -32 -47.499s-29 -24 -47 -32s-37.333 -12 -58 -12s-40.167 4 -58.5 12s-34.166 18.667 -47.499 32s-24 29.166 -32 47.499s-12 37.833 -12 58.5c0 21.333 4 41.166 12 59.499s18.667 34.333 32 48
s29.166 24.334 47.499 32.001s38.166 11.5 59.499 11.5z" />
    <glyph glyph-name="guilsinglleft" unicode="&#x2039;" horiz-adv-x="333" 
d="M91 316l152 122v-83l-106 -83l106 -83v-83l-152 121v89z" />
    <glyph glyph-name="guilsinglright" unicode="&#x203a;" horiz-adv-x="333" 
d="M239 228l-154 -122v83l108 83l-108 83v83l154 -121v-89z" />
    <glyph glyph-name="Euro" unicode="&#x20ac;" horiz-adv-x="672" 
d="M161 647l-158 0.00195312v82h421v-82h-169v-234c42 52 96.333 78 163 78c27.333 0 52.666 -4.33301 75.999 -13s43.5 -20.5 60.5 -35.5s30.333 -32.833 40 -53.5s14.5 -43.334 14.5 -68.001v-166c0 -21.333 -4 -41.333 -12 -60s-18.667 -35 -32 -49
s-29.166 -25.167 -47.499 -33.5s-37.5 -12.5 -57.5 -12.5h-147v82h146c16.667 0 30.167 6.16699 40.5 18.5s15.5 28.166 15.5 47.499v169c0 28.667 -10 51.167 -30 67.5s-47.333 24.5 -82 24.5c-21.333 0 -41 -3 -59 -9s-33.5 -14.333 -46.5 -25s-23.333 -23.167 -31 -37.5
s-11.5 -29.833 -11.5 -46.5v-291h-94v647z" />
    <glyph glyph-name="trademark" unicode="&#x2122;" horiz-adv-x="1000" 
d="M678 292l-121 341v-341h-67v437h94l132 -362l131 362h91v-437h-67v341l-123 -341h-70zM285 292h-68v382h-154v55h375v-55h-153v-382z" />
    <glyph glyph-name="partialdiff" unicode="&#x2202;" horiz-adv-x="490" 
d="M361 304c-26.667 42 -61.668 62.999 -105.001 62.999c-20 0 -39 -5.66699 -57 -17s-33.667 -26.5 -47 -45.5s-23.833 -41.5 -31.5 -67.5s-11.5 -53.333 -11.5 -82c0 -44 7.83301 -78 23.5 -102s37.5 -36 65.5 -36s52.833 10.5 74.5 31.5s39.167 51.167 52.5 90.5
c4 10.667 7.5 21.167 10.5 31.5s5.83301 21.833 8.5 34.5s5.33398 26.834 8.00098 42.501s5.66699 34.5 9 56.5zM61.999 721.999c41.333 18.667 85.333 27.9951 132 27.9951c38 0 73.167 -8.66699 105.5 -26s60.333 -41.166 84 -71.499s42 -66.666 55 -108.999
s19.5 -88.5 19.5 -138.5c0 -27.333 -1.83301 -55.333 -5.5 -84s-8.5 -56.834 -14.5 -84.501s-13.167 -53.5 -21.5 -77.5s-17.5 -44.667 -27.5 -62c-43.333 -74.667 -102.333 -112 -177 -112c-26.667 0 -51.667 5 -75 15s-43.5 23.667 -60.5 41s-30.333 37.833 -40 61.5
s-14.5 49.167 -14.5 76.5c0 32.667 6.5 64.834 19.5 96.501s31.167 59.167 54.5 82.5c33.333 33.333 73.666 50 120.999 50c14 0 26.5 -0.833008 37.5 -2.5s22 -5 33 -10s22.833 -11.667 35.5 -20s27.667 -19.166 45 -32.499c2 14.667 3.83301 27.334 5.5 38.001
s2.83398 20.334 3.50098 29.001s1.16699 16.5 1.5 23.5s0.5 14.167 0.5 21.5c0 37.333 -4.83301 73.5 -14.5 108.5s-23.167 64.167 -40.5 87.5c-24.667 34.667 -61.334 52 -110.001 52c-9.33301 0 -17.166 -0.166992 -23.499 -0.5s-13 -1.5 -20 -3.5s-15.167 -5 -24.5 -9
l-36 -16l-8 -4z" />
    <glyph glyph-name="radical" unicode="&#x221a;" horiz-adv-x="542" 
d="M512 908l-152 -944l-241 497l-94 -46l-18 33l148 73l193 -396l128 788z" />
    <glyph glyph-name="infinity" unicode="&#x221e;" horiz-adv-x="711" 
d="M320 264c-29.333 28.667 -57.168 50.5 -83.501 65.5s-50.166 22.5 -71.499 22.5c-12 0 -23.5 -2.33301 -34.5 -7s-20.5 -11 -28.5 -19s-14.333 -17.333 -19 -28s-7 -22 -7 -34s2.33301 -23.333 7 -34s11 -20 19 -28s17.333 -14.333 28 -19s22 -7 34 -7
c21.333 0 45.5 7.66699 72.5 23s54.833 37 83.5 65zM390.998 264c28.667 -28.667 56.501 -50.667 83.501 -66s51.167 -23 72.5 -23c12 0 23.333 2.33301 34 7s20 11.167 28 19.5s14.333 17.833 19 28.5s7 22 7 34s-2.33301 23.333 -7 34s-11 20 -19 28
s-17.5 14.333 -28.5 19s-22.5 7 -34.5 7c-21.333 0 -45.333 -7.5 -72 -22.5s-54.334 -36.833 -83.001 -65.5zM354.999 297l29.002 25.5l18.5 15.5c5 4 9.16699 7.5 12.5 10.5s7.66602 6.16699 12.999 9.5c18.667 14 38.667 25.167 60 33.5s41 12.5 59 12.5
c19.333 0 37.5 -3.66699 54.5 -11s31.833 -17.5 44.5 -30.5s22.667 -28 30 -45s11 -34.833 11 -53.5c0 -19.333 -3.66699 -37.5 -11 -54.5s-17.333 -31.833 -30 -44.5s-27.5 -22.667 -44.5 -30s-35.167 -11 -54.5 -11c-18.667 0 -38.5 4 -59.5 12s-40.833 19.333 -59.5 34
c-4.66699 3.33301 -8.83398 6.5 -12.501 9.5l-13 10.5l-18.5 15.5l-29 25.5l-28.5 -25.5c-7 -6.33301 -13 -11.5 -18 -15.5s-9.33301 -7.33301 -13 -10s-7.83398 -6 -12.501 -10c-18.667 -14.667 -38.5 -26 -59.5 -34s-40.833 -12 -59.5 -12
c-19.333 0 -37.5 3.66699 -54.5 11s-31.833 17.333 -44.5 30s-22.667 27.5 -30 44.5s-11 35.167 -11 54.5c0 18.667 3.66699 36.5 11 53.5s17.333 32 30 45s27.5 23.167 44.5 30.5s35.167 11 54.5 11c18 0 37.667 -4 59 -12s41.333 -19.333 60 -34
c4.66699 -4 8.83398 -7.33301 12.501 -10s8 -6 13 -10s11 -9.16699 18 -15.5z" />
    <glyph glyph-name="approxequal" unicode="&#x2248;" horiz-adv-x="585" 
d="M535 192l-20.5029 -28.5l-12 -17c-3 -4.33301 -5.66699 -8 -8 -11l-8.5 -10.5c-22.667 -28 -49.667 -42 -81 -42c-6.66699 0 -12.667 0.333008 -18 1s-11.666 2 -18.999 4s-17.166 5.33301 -29.499 10l-49.5 19c-29.333 11.333 -51.5 19 -66.5 23s-28.167 6 -39.5 6
c-20 0 -37.167 -5.66699 -51.5 -17s-29.166 -31 -44.499 -59l-37 36l26 40c5.33301 8 11 16 17 24c26.667 34.667 57.667 52 93 52c12.667 0 28.167 -2.66699 46.5 -8s43.833 -14.666 76.5 -27.999c14 -6 25.833 -10.667 35.5 -14s18 -6 25 -8s13.167 -3.33301 18.5 -4
s11.333 -1 18 -1c10 0 18.833 1.16699 26.5 3.5s15 6.16602 22 11.499s14 12.333 21 21s14.167 19.667 21.5 33zM534.997 352l-20.5029 -28.5l-12 -17c-3 -4.33301 -5.66699 -8 -8 -11l-8.5 -10.5c-22.667 -28 -49.667 -42 -81 -42c-6.66699 0 -12.667 0.333008 -18 1
s-11.666 2 -18.999 4s-17.166 5.33301 -29.499 10l-49.5 19c-29.333 11.333 -51.5 19 -66.5 23s-28.167 6 -39.5 6c-20 0 -37.167 -5.66699 -51.5 -17s-29.166 -31 -44.499 -59l-37 36l26 40c5.33301 8 11 16 17 24c26.667 34.667 57.667 52 93 52
c12.667 0 28.167 -2.66699 46.5 -8s43.833 -14.666 76.5 -27.999c14 -6 25.833 -10.667 35.5 -14s18 -6 25 -8s13.167 -3.33301 18.5 -4s11.333 -1 18 -1c10 0 18.833 1.16699 26.5 3.5s15 6.16602 22 11.499s14 12.333 21 21s14.167 19.667 21.5 33z" />
    <glyph glyph-name="notequal" unicode="&#x2260;" horiz-adv-x="548" 
d="M32 111v70h164l57 102h-221v70h260l76 133l50 -28l-59 -105h157v-70h-196l-57 -102h253v-70h-292l-76 -136l-51 29l60 107h-125z" />
    <glyph glyph-name="lessequal" unicode="&#x2264;" horiz-adv-x="584" 
d="M45 432l489 207v-79l-394 -161l394 -164v-79l-489 207v69zM534 -11h-489v67h489v-67z" />
    <glyph glyph-name="greaterequal" unicode="&#x2265;" horiz-adv-x="584" 
d="M534 363l-489 -207v79l394 161l-394 164v79l489 -207v-69zM534 -11h-489v67h489v-67z" />
    <glyph glyph-name=".null" horiz-adv-x="0" 
 />
    <glyph glyph-name="nonmarkingreturn" horiz-adv-x="278" 
 />
    <glyph glyph-name="glyph207" horiz-adv-x="618" 
d="M444 939l-149 -148h-60l96 148h113zM81 729h94v-302h111l180 302h104l-205 -345l252 -384h-104l-225 345h-113v-345h-94v729z" />
    <glyph glyph-name="glyph208" horiz-adv-x="505" 
d="M391 740l-149 -148h-60l96 148h113zM71 524h84v-201h103l106 201h97l-124 -238l167 -286h-98l-148 249h-103v-249h-84v524z" />
    <glyph glyph-name="cyrJ" 
d="M366 321l-135.998 0.00390625c5.33301 -15.333 9.16602 -28.5 11.499 -39.5s3.5 -21.833 3.5 -32.5c0 -12.667 -2 -25.334 -6 -38.001s-10.5 -26.334 -19.5 -41.001s-21.167 -30.834 -36.5 -48.501s-34 -37.834 -56 -60.501c38.667 26 79.334 39 122.001 39
c12.667 0 24.667 -1 36 -3s26.666 -6 45.999 -12c21.333 -6 37.5 -10.167 48.5 -12.5s21.167 -3.5 30.5 -3.5c26 0 53.667 10 83 30l42 -66c-20 -19.333 -40.333 -33.5 -61 -42.5s-44 -13.5 -70 -13.5c-9.33301 0 -18.333 0.5 -27 1.5s-18.334 2.66699 -29.001 5
s-23.167 5.83301 -37.5 10.5s-31.833 10.667 -52.5 18c-22 7.33301 -44 11 -66 11c-34 0 -70.333 -12.333 -109 -37l-48 66c22.667 20 42 38.167 58 54.5s29 32 39 47s17.167 29.833 21.5 44.5s6.5 29.667 6.5 45c0 26 -8 52 -24 78h-110v55h81
c-11.333 18.667 -20.5 34.5 -27.5 47.5s-12.333 24.333 -16 34s-6.16699 18.834 -7.5 27.501s-2 18.667 -2 30c0 30 6.16699 58.167 18.5 84.5s29.166 49 50.499 68s46.5 34 75.5 45s60.5 16.5 94.5 16.5c44 0 83 -9.16699 117 -27.5s59.667 -43.833 77 -76.5
c8.66699 -16 14.834 -34 18.501 -54s5.83398 -44.667 6.50098 -74h-88c-2.66699 102.667 -48 154 -136 154c-42.667 0 -76.834 -11.667 -102.501 -35s-38.5 -54 -38.5 -92c0 -9.33301 0.5 -17.833 1.5 -25.5s3 -15.834 6 -24.501s7.33301 -18.5 13 -29.5
s13.167 -24.5 22.5 -40.5c2 -3.33301 4 -6.5 6 -9.5s3.66699 -6.16699 5 -9.5c2 -3.33301 3 -4.83301 3 -4.5s0.666992 -1.16699 2 -4.5h160v-55z" />
    <glyph glyph-name="cyrubreve" 
d="M270 461c-87.333 -16 -131 -85.333 -131 -208c0 -56.667 11.333 -102.167 34 -136.5s55 -54.833 97 -61.5v406zM312 53c64 7.33301 102 49.668 114 127.001h84c-3.33301 -60.667 -22.5 -108.834 -57.5 -144.501s-81.833 -55.167 -140.5 -58.5v-97h-42v98
c-68 6 -121.333 33.333 -160 82s-58 112.667 -58 192c0 82.667 19.333 149.167 58 199.5s92 79.166 160 86.499v90h42v-89c58.667 -4 104.5 -22.5 137.5 -55.5s51.167 -78.167 54.5 -135.5h-84c-3.33301 34 -14.5 60.833 -33.5 80.5s-43.833 30.834 -74.5 33.501v-409z" />
    <glyph glyph-name="cyrgacute" 
d="M467 392h-126.002l-75 -397c-6.66699 -35.333 -15.167 -65 -25.5 -89s-23.5 -44.333 -39.5 -61c-17.333 -17.333 -37.833 -31.166 -61.5 -41.499s-48.167 -15.5 -73.5 -15.5c-23.333 0 -41.666 3.33301 -54.999 10l17 84c8.66699 -5.33301 16.834 -9.33301 24.501 -12
s16.167 -4 25.5 -4c26 0 46.833 9.16699 62.5 27.5s27.167 46.833 34.5 85.5l78 413h-113v70h125l22 104c5.33301 28 13 52 23 72s22.667 37.333 38 52c16 15.333 34.167 27.166 54.5 35.499s40.5 12.5 60.5 12.5c13.333 0 26 -1.5 38 -4.5s25.667 -7.83301 41 -14.5
l-30 -79c-12.667 7.33301 -22.5 12.166 -29.5 14.499s-14.5 3.5 -22.5 3.5c-23.333 0 -43 -10.667 -59 -32s-27.667 -52.666 -35 -93.999l-12 -70h113v-70z" />
    <glyph glyph-name="glyph212" horiz-adv-x="333" 
d="M284 240h-238v72h238v-72z" />
    <glyph glyph-name="cyrch" horiz-adv-x="584" 
d="M344 368h-104v104h104v-104zM344 0h-104v104h104v-104zM534 201h-484v70h484v-70z" />
    <glyph glyph-name="glyph224" horiz-adv-x="723" 
d="M80 729h94v-647h374v647h94v-729h-235v-166h-94v166h-233v729z" />
    <glyph glyph-name="glyph229" horiz-adv-x="567" 
d="M82 585l-102.999 -0.00195312v74h103v70h84v-70h116v-74h-116v-150c28.667 34 56.667 58.667 84 74s57.666 23 90.999 23c23.333 0 44.666 -4.33301 63.999 -13s36 -20.667 50 -36s25 -33.666 33 -54.999s12 -44.666 12 -69.999v-307c0 -26.667 -5.5 -52 -16.5 -76
s-26.5 -44.667 -46.5 -62c-16 -13.333 -35 -24.333 -57 -33s-42.667 -13 -62 -13h-129v77h129c12.667 0 25 2.83301 37 8.5s22.5 13.5 31.5 23.5s16.167 21.5 21.5 34.5s8 26.5 8 40.5v307c0 28 -8.66699 51.167 -26 69.5s-39.666 27.5 -66.999 27.5
c-56.667 0 -109 -36.667 -157 -110v-345h-84v585z" />
    <glyph glyph-name="glyph235" horiz-adv-x="545" 
d="M415 939l-149 -148h-60l96 148h113zM541 729v-82h-360v-647h-94v729h454z" />
    </font>
</defs>
</svg>
